SplineFontDB: 3.0
FontName: BenchNine-Bold
FullName: BenchNine Bold
FamilyName: BenchNine
Weight: Bold
Copyright: Copyright (c) 2012, vernon adams (vern@newtypography.co.uk), with Reserved Font Name 'BenchNine'
Version: 1
ItalicAngle: 0
UnderlinePosition: 0
UnderlineWidth: 0
Ascent: 1638
Descent: 410
UFOAscent: 1496
UFODescent: -374
LayerCount: 2
Layer: 0 0 "Back"  1
Layer: 1 0 "Fore"  0
FSType: 0
OS2Version: 0
OS2_WeightWidthSlopeOnly: 0
OS2_UseTypoMetrics: 0
CreationTime: 1348080930
ModificationTime: 1348521925
PfmFamily: 17
TTFWeight: 700
TTFWidth: 5
LineGap: 0
VLineGap: 0
Panose: 0 0 0 0 0 0 0 0 0 0
OS2TypoAscent: 2020
OS2TypoAOffset: 0
OS2TypoDescent: -720
OS2TypoDOffset: 0
OS2TypoLinegap: 0
OS2WinAscent: 2020
OS2WinAOffset: 0
OS2WinDescent: 720
OS2WinDOffset: 0
HheadAscent: 2020
HheadAOffset: 0
HheadDescent: -720
HheadDOffset: 0
OS2SubXSize: 3863
OS2SubYSize: 3575
OS2SubXOff: 0
OS2SubYOff: 607
OS2SupXSize: 3863
OS2SupYSize: 3575
OS2SupXOff: 0
OS2SupYOff: 2351
OS2StrikeYSize: 209
OS2StrikeYPos: 1567
OS2Vendor: 'newt'
Lookup: 258 0 0 "'kern' Horizontal Kerning lookup 0"  {"'kern' Horizontal Kerning lookup 0 per glyph data 0"  "'kern' Horizontal Kerning lookup 0 kerning class 1"  } ['kern' ('DFLT' <'dflt' > 'latn' <'dflt' > ) ]
MarkAttachClasses: 1
DEI: 91125
KernClass2: 30 29 "'kern' Horizontal Kerning lookup 0 kerning class 1" 
 89 A Aacute Abreve Acircumflex Adieresis Agrave Amacron Aogonek Aring Atilde uni0200 uni0202
 47 C Cacute Ccaron Ccedilla Ccircumflex Cdotaccent
 16 D Dcaron uni1E0A
 9 F uni1E1E
 52 G Gbreve Gcircumflex Gcommaaccent Gdotaccent uni01F4
 14 K Kcommaaccent
 28 L Lacute Lcaron Lcommaaccent
 89 O Oacute Obreve Ocircumflex Odieresis Ograve Ohungarumlaut Omacron Otilde uni020C uni020E
 9 P uni1E56
 44 R Racute Rcaron Rcommaaccent uni0210 uni0212
 24 T Tcaron uni021A uni1E6A
 1 V
 37 W Wacute Wcircumflex Wdieresis Wgrave
 37 Y Yacute Ycircumflex Ydieresis Ygrave
 9 b uni1E03

StartChar: .notdef
Encoding: 65536 -1 0
Width: 349
VWidth: 0
Flags: HW
LayerCount: 2
Fore
SplineSet
70 -197 m 1
 280 -197 l 1
 280 1373 l 1
 70 1373 l 1
 70 -197 l 1
35 -299 m 1
 35 1475 l 1
 314 1475 l 1
 314 -299 l 1
 35 -299 l 1
EndSplineSet
EndChar

StartChar: A
Encoding: 33 65 1
Width: 822
VWidth: 0
Flags: HW
LayerCount: 2
Fore
SplineSet
68 0 m 2
 59 0 53 5 53 29 c 2
 53 46 l 2
 53 52 53 59 54 63 c 2
 279 1388 l 2
 286 1429 300 1437 316 1438 c 1
 519 1438 l 1
 535 1437 548 1429 555 1388 c 2
 776 63 l 2
 777 54 780 36 780 28 c 0
 780 5 773 0 763 0 c 2
 598 0 l 2
 585 0 573 5 567 41 c 2
 530 296 l 2
 528 309 526 318 519 318 c 2
 277 318 l 2
 270 318 268 308 266 295 c 2
 224 42 l 2
 219 6 210 0 196 0 c 2
 68 0 l 2
306 443 m 2
 510 443 l 2
 515 443 517 452 517 461 c 0
 517 464 517 467 515 470 c 1
 416 1241 l 6
 415 1246 414 1248 413 1248 c 4
 411 1248 410 1246 409 1242 c 6
 292 471 l 2
 291.381835938 466.924804688 291 464 291 462 c 0
 291 453 294 443 306 443 c 2
EndSplineSet
EndChar

StartChar: AE
Encoding: 129 198 2
Width: 1027
VWidth: 0
Flags: HW
LayerCount: 2
Fore
SplineSet
67 0 m 2
 59 0 53 5 53 29 c 0
 53 33 52 40 52 46 c 0
 52 52 53 59 55 63 c 2
 389 1388 l 1
 397 1429 411 1438 428 1438 c 2
 929 1438 l 2
 944 1438 954 1435 954 1398 c 2
 954 1319 l 2
 954 1282 944 1279 929 1279 c 2
 735 1279 l 2
 728 1279 723 1266 723 1246 c 2
 723 842 l 2
 723 829 729 815 733 815 c 2
 889 815 l 2
 904 815 914 806 914 769 c 2
 914 692 l 2
 914 655 904 646 889 646 c 2
 734 646 l 2
 729 646 723 629 723 616 c 2
 723 159 l 1
 946 159 l 2
 961 159 972 156 972 119 c 2
 972 40 l 2
 972 3 961 0 946 0 c 2
 551 0 l 2
 536 0 526 3 526 42 c 2
 526 318 l 1
 309 318 l 2
 302 318 301 308 298 295 c 2
 235 42 l 1
 229 6 219 0 204 0 c 0
 67 0 l 2
348 443 m 2
 520 443 l 2
 524 443 526 457 526 465 c 2
 526 1256 l 2
 526 1261 525 1268 523 1268 c 0
 522 1268 519 1262 519 1258 c 2
 335 471 l 2
 333.543560763 466.33939444 332.765910406 462.018183321 332.765910406 458.234089594 c 0
 332.765910406 449.027274982 337.369317712 443 348 443 c 2
EndSplineSet
EndChar

StartChar: B
Encoding: 34 66 12
Width: 896
VWidth: 0
Flags: HW
LayerCount: 2
Fore
SplineSet
143 0 m 2
 127 0 116 3 116 44 c 2
 116 1393 l 2
 116 1435 127 1438 143 1438 c 2
 509 1438 l 2
 672 1438 794 1340 794 1041 c 0
 794 930 771 837 705 782 c 0
 701 778 696 773 696 770 c 0
 696 765 702 761 706 757 c 0
 789 698 831 590 831 424 c 0
 831 96 692 0 490 0 c 2
 143 0 l 2
327 150 m 2
 454 150 l 2
 572 150 639 257 639 425 c 0
 639 576 576 684 486 684 c 2
 327 684 l 2
 319 684 313 680 313 660 c 2
 313 170 l 2
 313 152 319 150 327 150 c 2
327 833 m 2
 493 833 l 2
 565 833 614 910 614 1035 c 0
 614 1203 550 1282 455 1282 c 2
 327 1282 l 2
 319 1282 313 1280 313 1260 c 2
 313 853 l 2
 313 835 319 833 327 833 c 2
EndSplineSet
EndChar

StartChar: C
Encoding: 35 67 13
Width: 717
VWidth: 0
Flags: HW
LayerCount: 2
Fore
SplineSet
494 -15 m 0
 280 -15 87 44 87 720 c 0
 87 1382 287 1454 499 1454 c 0
 555 1454 618 1442 652 1426 c 1
 655 1422 662 1421 662 1407 c 2
 662 1286 l 2
 662 1273 659 1272 655 1272 c 0
 652 1272 597 1292 534 1292 c 0
 395 1292 285 1228 285 720 c 0
 285 206 377 146 520 146 c 0
 570 146 611 153 646 165 c 0
 647 165 654 145 654 144 c 2
 654 29 l 2
 654 28 647 9 646 8 c 0
 606 -7 546 -15 494 -15 c 0
EndSplineSet
EndChar

StartChar: D
Encoding: 36 68 19
Width: 935
VWidth: 0
Flags: HW
LayerCount: 2
Fore
SplineSet
326 159 m 2
 449 159 l 2
 596 159 651 266 651 726 c 0
 651 1163 581 1279 456 1279 c 2
 325 1279 l 2
 319 1279 313 1273 313 1257 c 2
 313 181 l 2
 313 163 318 159 326 159 c 2
141 0 m 2
 126 0 116 4 116 44 c 2
 116 1398 l 2
 116 1434 126 1438 141 1438 c 2
 485 1438 l 2
 710 1438 849 1273 849 729 c 0
 849 61 712 0 458 0 c 2
 141 0 l 2
EndSplineSet
EndChar

StartChar: Dcroat
Encoding: 203 272 21
Width: 935
VWidth: 0
Flags: HW
LayerCount: 2
Fore
SplineSet
326 159 m 2
 449 159 l 2
 596 159 651 266 651 726 c 0
 651 1163 581 1279 456 1279 c 2
 325 1279 l 2
 319 1279 313 1273 313 1257 c 2
 313 777 l 1
 455 777 l 2
 478 777 490 765 490 738 c 2
 490 710 l 2
 490 682 478 671 455 671 c 2
 313 671 l 1
 313 181 l 2
 313 163 318 159 326 159 c 2
141 0 m 2
 126 0 116 4 116 44 c 2
 116 671 l 1
 40 671 l 2
 17 671 5 682 5 709 c 2
 5 738 l 2
 5 765 17 777 40 777 c 2
 116 777 l 1
 116 1398 l 2
 116 1434 126 1438 141 1438 c 2
 485 1438 l 2
 710 1438 849 1273 849 729 c 0
 849 61 712 0 458 0 c 2
 141 0 l 2
EndSplineSet
EndChar

StartChar: Delta
Encoding: 412 916 22
Width: 822
VWidth: 0
Flags: HW
LayerCount: 2
Fore
SplineSet
100 247 m 2
 91 247 84 252 84 276 c 0
 84 284 84 301 85 311 c 2
 281 1350 l 2
 288 1391 301 1398 317 1400 c 1
 508 1400 l 1
 524 1398 537 1391 544 1350 c 2
 737 311 l 2
 738 301 741 284 741 276 c 0
 741 252 734 247 724 247 c 2
 100 247 l 2
288 385 m 2
 542 385 l 2
 546 385 548 394 548 403 c 0
 548 406 547.356445312 408.79296875 547 411 c 2
 415 1229 l 6
 414.16796875 1234.03027344 413 1236 412 1236 c 4
 410 1236 408.6640625 1232.94433594 408 1229 c 6
 274 413 l 2
 273.33203125 408.931640625 273 406 273 404 c 0
 273 394 276 385 288 385 c 2
EndSplineSet
EndChar

StartChar: E
Encoding: 37 69 23
Width: 752
VWidth: 0
Flags: HW
LayerCount: 2
Fore
SplineSet
141 0 m 2
 126 0 116 3 116 42 c 2
 116 1396 l 2
 116 1434 126 1438 141 1438 c 2
 667 1438 l 2
 681 1438 692 1435 692 1398 c 2
 692 1319 l 2
 692 1282 681 1279 667 1279 c 2
 325 1279 l 2
 318 1279 313 1266 313 1246 c 2
 313 842 l 2
 313 829 319 815 323 815 c 2
 598 815 l 2
 613 815 623 806 623 769 c 2
 623 692 l 2
 623 655 613 646 598 646 c 2
 324 646 l 2
 319 646 313 629 313 616 c 2
 313 159 l 1
 670 159 l 2
 685 159 696 156 696 119 c 2
 696 40 l 2
 696 3 685 0 670 0 c 2
 141 0 l 2
EndSplineSet
EndChar

StartChar: Eth
Encoding: 139 208 33
Width: 935
VWidth: 0
Flags: HW
LayerCount: 2
Fore
SplineSet
326 159 m 2
 449 159 l 2
 596 159 651 266 651 726 c 0
 651 1163 581 1279 456 1279 c 2
 325 1279 l 2
 319 1279 313 1273 313 1257 c 2
 313 794 l 1
 410 794 l 2
 443 794 459 783 459 746 c 2
 459 697 l 1
 457 665 441 655 410 655 c 2
 313 655 l 1
 313 181 l 2
 313 163 318 159 326 159 c 2
141 0 m 2
 126 0 116 4 116 44 c 2
 116 655 l 1
 66 655 l 2
 33 655 17 666 17 703 c 2
 17 745 l 2
 17 783 33 794 66 794 c 2
 116 794 l 1
 116 1398 l 2
 116 1434 126 1438 141 1438 c 2
 485 1438 l 2
 710 1438 849 1273 849 729 c 0
 849 61 712 0 458 0 c 2
 141 0 l 2
EndSplineSet
EndChar

StartChar: Euro
Encoding: 396 8364 34
Width: 717
VWidth: 0
Flags: HW
LayerCount: 2
Fore
SplineSet
494 -18 m 0
 305 -18 132 30 95 512 c 1
 43 512 l 2
 28 512 19 515 19 558 c 2
 19 599 l 2
 19 642 28 645 43 645 c 2
 88 645 l 1
 88 669 87 694 87 720 c 0
 87 745 88 768 88 792 c 1
 43 792 l 2
 28 792 19 794 19 837 c 2
 19 878 l 2
 19 921 28 924 43 924 c 2
 95 924 l 1
 133 1398 311 1457 499 1457 c 0
 548 1457 642 1449 662 1410 c 1
 662 1290 l 2
 662 1278 659 1277 655 1277 c 0
 652 1277 597 1294 534 1294 c 0
 417 1294 319 1247 293 924 c 1
 460 924 l 2
 474 924 483 921 483 878 c 2
 483 837 l 2
 483 794 474 792 460 792 c 2
 286 792 l 1
 285 769 285 745 285 720 c 0
 285 693 285 668 286 645 c 1
 460 645 l 2
 474 645 483 642 483 599 c 2
 483 558 l 2
 483 515 474 512 460 512 c 2
 292 512 l 1
 315 188 400 143 520 143 c 0
 570 143 611 150 646 162 c 1
 650 161 654 152 654 141 c 2
 654 27 l 2
 654 15 649 6 642 4 c 0
 606 -11 538 -18 494 -18 c 0
EndSplineSet
EndChar

StartChar: F
Encoding: 38 70 35
Width: 684
VWidth: 0
Flags: HW
LayerCount: 2
Fore
SplineSet
141 0 m 2
 126 0 116 3 116 42 c 2
 116 1396 l 2
 116 1433 126 1438 141 1438 c 2
 632 1438 l 2
 647 1438 657 1435 657 1398 c 2
 657 1319 l 2
 657 1282 647 1279 632 1279 c 2
 325 1279 l 2
 318 1279 313 1273 313 1253 c 2
 313 812 l 2
 313 799 319 792 323 792 c 2
 573 792 l 2
 588 792 598 789 598 753 c 2
 598 663 l 2
 598 626 588 623 573 623 c 2
 324 623 l 2
 319 623 313 611 313 598 c 2
 313 42 l 2
 313 3 303 0 288 0 c 2
 141 0 l 2
EndSplineSet
EndChar

StartChar: G
Encoding: 39 71 36
Width: 902
VWidth: 0
Flags: HW
LayerCount: 2
Fore
SplineSet
792 -16 m 0
 777 -16 752 -6 742 47 c 0
 741 57 714 195 714 214 c 0
 714 220 712 224 711 224 c 0
 709 224 707 222 705 215 c 0
 683 66 607 -15 482 -15 c 0
 291 -15 92 65 92 720 c 0
 92 1398 331 1454 564 1454 c 0
 625 1454 700 1434 734 1419 c 1
 738 1415 746 1415 746 1400 c 2
 746 1277 l 2
 746 1264 742 1263 738 1263 c 0
 735 1263 642 1292 575 1292 c 0
 416 1292 290 1227 290 720 c 0
 290 242 383 144 503 144 c 0
 630 144 652 300 652 544 c 0
 652 577 648 589 643 589 c 2
 530 589 l 2
 515 589 501 593 501 632 c 2
 501 714 l 2
 501 753 514 758 529 758 c 2
 798 758 l 2
 812 758 824 739 824 696 c 2
 824 51 l 2
 824 8 807 -16 792 -16 c 0
EndSplineSet
EndChar

StartChar: H
Encoding: 40 72 41
Width: 947
VWidth: 0
Flags: HW
LayerCount: 2
Fore
SplineSet
142 0 m 2
 126 0 116 4 116 47 c 2
 116 1391 l 2
 116 1434 126 1438 142 1438 c 2
 287 1438 l 2
 303 1438 313 1434 313 1391 c 2
 313 859 l 2
 313 846 319 836 323 836 c 2
 623 836 l 2
 627 836 634 847 634 860 c 2
 634 1391 l 2
 634 1434 645 1438 660 1438 c 2
 807 1438 l 2
 822 1438 832 1434 832 1391 c 2
 832 47 l 2
 832 4 822 0 807 0 c 2
 660 0 l 2
 645 0 633 4 633 47 c 2
 633 658 l 2
 633 671 627 679 622 679 c 2
 325 679 l 2
 320 679 315 671 315 658 c 2
 315 47 l 2
 315 4 304 0 289 0 c 2
 142 0 l 2
EndSplineSet
EndChar

StartChar: Hbar
Encoding: 223 294 42
Width: 947
VWidth: 0
Flags: HW
LayerCount: 2
Fore
SplineSet
142 0 m 2
 126 0 116 4 116 47 c 2
 116 1174 l 1
 54 1174 l 2
 31 1174 19 1185 19 1212 c 2
 19 1241 l 2
 19 1268 31 1280 54 1280 c 2
 116 1280 l 1
 116 1391 l 2
 116 1434 126 1438 142 1438 c 2
 287 1438 l 2
 303 1438 313 1434 313 1391 c 2
 313 1280 l 1
 634 1280 l 1
 634 1391 l 2
 634 1434 645 1438 660 1438 c 2
 807 1438 l 2
 822 1438 832 1434 832 1391 c 2
 832 1280 l 1
 893 1280 l 2
 916 1280 928 1268 928 1241 c 2
 928 1213 l 2
 928 1185 916 1174 893 1174 c 2
 832 1174 l 1
 832 47 l 2
 832 4 822 0 807 0 c 2
 660 0 l 2
 645 0 633 4 633 47 c 2
 633 658 l 2
 633 671 627 679 622 679 c 2
 325 679 l 2
 320 679 315 671 315 658 c 2
 315 47 l 2
 315 4 304 0 289 0 c 2
 142 0 l 2
323 836 m 2
 623 836 l 2
 627 836 634 847 634 860 c 2
 634 1174 l 1
 313 1174 l 1
 313 859 l 2
 313 846 319 836 323 836 c 2
EndSplineSet
EndChar

StartChar: I
Encoding: 41 73 44
Width: 430
VWidth: 0
Flags: HW
LayerCount: 2
Fore
SplineSet
143 0 m 2
 128 0 117 4 117 47 c 2
 117 1391 l 2
 117 1434 128 1438 143 1438 c 2
 290 1438 l 2
 304 1438 315 1434 315 1391 c 2
 315 47 l 2
 315 4 304 0 290 0 c 2
 143 0 l 2
EndSplineSet
EndChar

StartChar: J
Encoding: 42 74 55
Width: 534
VWidth: 0
Flags: HW
LayerCount: 2
Fore
SplineSet
63 -155 m 0
 56 -155 50 -145 50 -124 c 2
 50 5 l 2
 50 27 56 38 63 39 c 0
 171 45 218 51 218 464 c 2
 218 1395 l 2
 218 1423 224 1438 234 1438 c 2
 399 1438 l 2
 408 1438 416 1423 416 1395 c 2
 416 412 l 2
 416 -138 251 -155 63 -155 c 0
EndSplineSet
EndChar

StartChar: K
Encoding: 43 75 57
Width: 814
VWidth: 0
Flags: HW
LayerCount: 2
Fore
SplineSet
141 0 m 2
 126 0 116 11 116 54 c 2
 116 1384 l 2
 116 1427 126 1438 141 1438 c 2
 287 1438 l 2
 302 1438 313 1427 313 1384 c 2
 313 725 l 1
 558 1387 l 2
 570 1421 584 1438 601 1438 c 2
 749 1438 l 2
 764 1438 770 1428 770 1415 c 0
 770 1406 768 1396 764 1386 c 2
 522 770 l 2
 520 763 515 751 515 733 c 0
 515 725 516 716 519 705 c 1
 777 55 l 2
 782 42 784 32 784 23 c 0
 784 9 778 0 771 0 c 2
 625 0 l 2
 608 0 594 10 578 52 c 1
 314 678 l 1
 314 52 l 2
 314 9 302 0 287 0 c 2
 141 0 l 2
EndSplineSet
EndChar

StartChar: L
Encoding: 44 76 59
Width: 652
VWidth: 0
Flags: HW
LayerCount: 2
Fore
SplineSet
141 0 m 2
 126 0 116 4 116 47 c 2
 116 1391 l 2
 116 1434 126 1438 141 1438 c 2
 288 1438 l 2
 303 1438 313 1434 313 1391 c 2
 313 181 l 2
 313 161 319 159 327 159 c 2
 587 159 l 2
 601 159 612 156 612 120 c 2
 612 40 l 2
 612 3 601 0 587 0 c 2
 141 0 l 2
EndSplineSet
EndChar

StartChar: Lslash
Encoding: 250 321 64
Width: 652
VWidth: 0
Flags: HW
LayerCount: 2
Fore
SplineSet
587 0 m 2
 141 0 l 2
 126 0 116 4 116 47 c 2
 116 653 l 1
 38 632 l 1
 23 629 12 636 12 672 c 2
 12 759 l 2
 12 795 24 795 38 798 c 2
 116 819 l 1
 116 1391 l 2
 116 1434 126 1438 141 1438 c 2
 288 1438 l 2
 303 1438 313 1434 313 1391 c 2
 313 869 l 1
 479 913 l 2
 493 916 504 910 504 873 c 2
 504 786 l 2
 504 750 493 750 479 747 c 2
 313 703 l 1
 313 181 l 2
 313 161 319 159 327 159 c 2
 587 159 l 2
 601 159 612 156 612 120 c 2
 612 40 l 2
 612 3 601 0 587 0 c 2
EndSplineSet
EndChar

StartChar: M
Encoding: 45 77 65
Width: 1082
VWidth: 0
Flags: HW
LayerCount: 2
Fore
SplineSet
121 0 m 2
 108 0 97 10 97 49 c 2
 97 54 l 1
 142 1381 l 2
 143 1424 152 1437 167 1438 c 1
 325 1438 l 1
 341 1437 357.654296875 1432.12109375 365 1391 c 2
 534 445 l 2
 536 436 544 436 545 445 c 2
 715 1388 l 2
 722.237304688 1428.14453125 738 1437 754 1438 c 1
 914 1438 l 1
 928 1437 938 1424 938 1381 c 1
 985 54 l 2
 985 52 985 50 985 48 c 0
 985 10 975 0 960 0 c 2
 850 0 l 2
 835 0 825.297851562 11.0087890625 824 54 c 2
 793 1081 l 6
 793 1088 788 1091 786 1085 c 6
 604 48 l 2
 597.490234375 10.9111328125 584 0 570 0 c 2
 505 0 l 2
 492 0 479 11 471 48 c 1
 294 1080 l 6
 293 1086 289 1082 289 1076 c 6
 257 54 l 1
 257 11 248 0 234 0 c 2
 121 0 l 2
EndSplineSet
EndChar

StartChar: N
Encoding: 46 78 66
Width: 962
VWidth: 0
Flags: HW
LayerCount: 2
Fore
SplineSet
142 0 m 2
 126 0 116 7 116 50 c 2
 116 1385 l 2
 116 1428 126 1438 142 1438 c 2
 294 1438 l 2
 307 1438 321 1423 330 1399 c 2
 669 488 l 2
 671 482 676 491 676 501 c 2
 676 1385 l 2
 676 1428 688 1438 703 1438 c 2
 822 1438 l 2
 837 1438 847 1428 847 1385 c 2
 847 46 l 2
 847 3 837 -1 822 -1 c 2
 714 -1 l 2
 701 -1 683 16 674 41 c 2
 297 1025 l 2
 294 1031 290 1023 290 1013 c 2
 290 50 l 2
 290 7 279 0 263 0 c 2
 142 0 l 2
EndSplineSet
EndChar

StartChar: O
Encoding: 47 79 71
Width: 924
VWidth: 0
Flags: HW
LayerCount: 2
Fore
SplineSet
461 143 m 0
 596 143 639 252 639 726 c 0
 639 1179 601 1292 462 1292 c 0
 325 1292 285 1172 285 726 c 0
 285 256 328 143 461 143 c 0
462 -15 m 0
 199 -15 87 111 87 726 c 0
 87 1320 205 1454 462 1454 c 0
 720 1454 837 1323 837 726 c 0
 837 107 727 -15 462 -15 c 0
EndSplineSet
EndChar

StartChar: OE
Encoding: 264 338 72
Width: 1175
VWidth: 0
Flags: HW
LayerCount: 2
Fore
SplineSet
498 0 m 2
 292 0 87 93 87 722 c 0
 87 1282 275 1438 479 1438 c 2
 1076 1438 l 2
 1090 1438 1101 1415 1101 1379 c 2
 1101 1339 l 2
 1101 1301 1091 1279 1076 1279 c 2
 789 1279 l 2
 782 1279 778 1266 778 1246 c 2
 778 838 l 2
 778 825 783 811 787 811 c 2
 1030 811 l 2
 1045 811 1056 789 1056 753 c 2
 1056 712 l 2
 1056 675 1045 653 1030 653 c 2
 788 653 l 2
 783 653 778 636 778 623 c 2
 778 188 l 2
 778 175 781 159 786 159 c 2
 1094 159 l 2
 1108 159 1118 137 1118 99 c 2
 1118 60 l 2
 1118 22 1108 0 1094 0 c 2
 498 0 l 2
572 158 m 2
 574 158 576 438 576 718 c 0
 576 998 574 1279 572 1279 c 2
 489 1279 l 2
 365 1279 285 1131 285 722 c 0
 285 289 367 159 489 158 c 1
 572 158 l 2
EndSplineSet
EndChar

StartChar: Oslash
Encoding: 147 216 80
Width: 924
VWidth: 0
Flags: HW
LayerCount: 2
Fore
SplineSet
304 -205 m 2
 300 -205 297 -177 298 -172 c 2
 323 2 l 1
 159 54 87 235 87 728 c 0
 87 1322 205 1459 462 1459 c 0
 485 1459 508 1457 528 1454 c 1
 551 1614 l 2
 554 1634 560 1647 566 1647 c 2
 641 1647 l 2
 646 1647 650 1629 647 1614 c 2
 621 1433 l 1
 769 1371 837 1185 837 728 c 0
 837 109 727 -16 462 -16 c 0
 446 -16 431 -15 416 -14 c 1
 394 -173 l 2
 392 -193 385 -206 379 -206 c 2
 304 -205 l 2
354 225 m 1
 505 1291 l 1
 492 1294 478 1296 462 1296 c 0
 325 1296 285 1174 285 728 c 0
 285 441 305 296 354 225 c 1
461 145 m 0
 596 145 639 253 639 728 c 0
 639 967 625 1107 586 1184 c 1
 440 147 l 1
 447 146 453 145 461 145 c 0
EndSplineSet
EndChar

StartChar: P
Encoding: 48 80 82
Width: 866
VWidth: 0
Flags: HW
LayerCount: 2
Fore
SplineSet
141 0 m 2
 126 0 116 11 116 52 c 2
 116 1391 l 2
 116 1433 126 1438 141 1438 c 2
 435 1438 l 2
 621 1438 807 1404 807 965 c 0
 807 551 640 500 466 500 c 2
 324 500 l 2
 318 500 313 497 313 482 c 2
 313 52 l 2
 313 11 303 0 288 0 c 2
 141 0 l 2
323 660 m 2
 443 660 l 2
 572 660 610 701 610 964 c 0
 610 1259 534 1279 424 1279 c 2
 323 1279 l 2
 318 1279 313 1274 313 1259 c 2
 313 678 l 2
 313 663 317 660 323 660 c 2
EndSplineSet
EndChar

StartChar: Q
Encoding: 49 81 83
Width: 952
VWidth: 0
Flags: HW
LayerCount: 2
Fore
SplineSet
542 -346 m 2
 468 -15 l 1
 459 -16 442 -17 430 -16 c 0
 198 -1 87 131 87 722 c 0
 87 1330 219 1454 476 1454 c 0
 734 1454 865 1334 865 722 c 0
 865 215 786 49 617 -1 c 1
 630 -71 686 -307 686 -333 c 1
 689 -359 689 -372 669 -379 c 0
 663 -381 591 -399 581 -399 c 0
 565 -399 551 -386 542 -346 c 2
475 143 m 0
 610 143 667 234 667 722 c 0
 667 1189 615 1292 476 1292 c 0
 339 1292 285 1182 285 722 c 0
 285 239 342 143 475 143 c 0
EndSplineSet
EndChar

StartChar: R
Encoding: 50 82 84
Width: 924
VWidth: 0
Flags: HW
LayerCount: 2
Fore
SplineSet
141 0 m 2
 126 0 116 4 116 45 c 2
 116 1392 l 2
 116 1435 126 1438 141 1438 c 2
 477 1438 l 2
 663 1438 817 1396 817 1054 c 0
 817 846 751 779 664 745 c 1
 662 743 661 741 661 739 c 0
 661 737 662 735 664 734 c 0
 746 695 810 646 818 408 c 0
 820 369 822 64 822 50 c 0
 822 19 815 0 804 0 c 2
 804 0 649 -1 645 -1 c 0
 634 -1 629 8 628 44 c 1
 624 105 620 463 609 518 c 1
 601 633 529 648 467 648 c 2
 324 648 l 2
 318 648 313 642 313 626 c 2
 313 45 l 2
 313 5 303 0 288 0 c 2
 141 0 l 2
323 804 m 2
 452 804 l 2
 578 804 619 908 619 1047 c 0
 619 1222 561 1279 421 1279 c 2
 324 1279 l 2
 318 1279 313 1274 313 1259 c 2
 313 831 l 2
 313 816 317 804 323 804 c 2
EndSplineSet
EndChar

StartChar: S
Encoding: 51 83 88
Width: 776
VWidth: 0
Flags: HW
LayerCount: 2
Fore
SplineSet
407 1454 m 0
 515 1454 621 1420 700 1317 c 0
 707 1308 710 1297 710 1286 c 0
 710 1236 656 1173 631 1173 c 0
 627 1173 624 1174 622 1177 c 0
 564 1247 490 1285 410 1285 c 0
 315 1285 257 1192 257 1084 c 0
 257 970 319 911 396 862 c 2
 523 780 l 2
 630 711 724 599 724 400 c 0
 724 161 594 -15 381 -15 c 0
 255 -15 135 36 47 168 c 0
 43 174 41 182 41 191 c 0
 41 237 89 309 124 309 c 0
 131 309 137 306 142 300 c 0
 213 209 293 157 381 157 c 0
 488 157 547 251 547 371 c 0
 547 491 491 551 405 607 c 1
 277 693 l 2
 177 760 85 857 85 1050 c 0
 85 1287 208 1454 407 1454 c 0
EndSplineSet
EndChar

StartChar: T
Encoding: 52 84 94
Width: 663
VWidth: 0
Flags: HW
LayerCount: 2
Fore
SplineSet
260 0 m 2
 246 0 235 5 235 48 c 2
 235 1252 l 2
 235 1272 231 1277 224 1277 c 2
 50 1277 l 2
 34 1277 24 1278 24 1315 c 2
 24 1394 l 2
 24 1433 34 1438 50 1438 c 2
 615 1438 l 2
 630 1438 640 1433 640 1394 c 2
 640 1315 l 2
 640 1278 630 1277 615 1277 c 2
 444 1277 l 2
 437 1277 433 1272 433 1252 c 2
 433 48 l 2
 433 5 422 0 407 0 c 2
 260 0 l 2
EndSplineSet
EndChar

StartChar: Thorn
Encoding: 153 222 96
Width: 866
VWidth: 0
Flags: HW
LayerCount: 2
Fore
SplineSet
141 0 m 2
 126 0 116 11 116 52 c 2
 116 1385 l 2
 116 1425 126 1437 141 1437 c 2
 288 1437 l 2
 303 1437 313 1426 313 1385 c 2
 313 1216 l 1
 435 1216 l 2
 621 1216 807 1195 807 774 c 0
 807 380 640 343 466 343 c 2
 324 343 l 2
 318 343 313 340 313 324 c 2
 313 52 l 2
 313 11 303 0 288 0 c 2
 141 0 l 2
323 502 m 2
 443 502 l 2
 572 502 610 528 610 773 c 0
 610 1051 534 1057 424 1057 c 2
 323 1057 l 2
 318 1057 313 1052 313 1037 c 2
 313 521 l 2
 313 506 317 502 323 502 c 2
EndSplineSet
EndChar

StartChar: U
Encoding: 53 85 97
Width: 953
VWidth: 0
Flags: HW
LayerCount: 2
Fore
SplineSet
480 -15 m 0
 254 -15 100 40 100 583 c 2
 100 1391 l 2
 100 1434 111 1438 126 1438 c 2
 273 1438 l 2
 287 1438 298 1434 298 1391 c 2
 298 589 l 2
 298 193 353 145 479 145 c 0
 606 145 655 181 655 589 c 2
 655 1391 l 2
 655 1434 665 1438 680 1438 c 2
 828 1438 l 2
 842 1438 852 1434 852 1391 c 2
 852 583 l 2
 852 33 696 -15 480 -15 c 0
EndSplineSet
EndChar

StartChar: V
Encoding: 54 86 108
Width: 800
VWidth: 0
Flags: HW
LayerCount: 2
Fore
SplineSet
332 0 m 1
 317 1 303 23 295 64 c 2
 45 1371 l 2
 44 1380 43 1388 43 1396 c 0
 43 1420 49 1438 59 1438 c 2
 206 1438 l 2
 222 1438 236.190429688 1414.21289062 243 1373 c 2
 416 326 l 5
 584 1373 l 2
 590.58984375 1414.06933594 604 1438 621 1438 c 2
 742 1438 l 2
 752 1438 757 1421 757 1399 c 0
 757 1390 757 1381 755 1371 c 2
 516 64 l 2
 509 23 496 1 479 0 c 1
 332 0 l 1
EndSplineSet
EndChar

StartChar: W
Encoding: 55 87 109
Width: 1130
VWidth: 0
Flags: HW
LayerCount: 2
Fore
SplineSet
272 0 m 1
 257 1 242 27 236 69 c 2
 55 1369 l 2
 53 1379 53 1388 53 1397 c 0
 53 1421 59 1438 69 1438 c 2
 200 1438 l 2
 216 1438 230.956054688 1411.12207031 236 1368 c 2
 347 419 l 5
 482 1365 l 2
 488.155273438 1408.12890625 504 1429 519 1429 c 2
 627 1429 l 1
 642 1427 655.932617188 1405.98925781 662 1365 c 2
 805 399 l 5
 917 1369 l 2
 921.866210938 1411.14550781 937 1438 952 1438 c 2
 1065 1438 l 2
 1074 1438 1081 1421 1081 1397 c 0
 1081 1388 1080 1379 1078 1369 c 2
 901 69 l 2
 895 27 882 1 867 0 c 1
 745 0 l 1
 729 1 715 28 709 70 c 2
 559 1003 l 1
 414 69 l 1
 409 29 396 3 382 0 c 1
 272 0 l 1
EndSplineSet
EndChar

StartChar: X
Encoding: 56 88 114
Width: 809
VWidth: 0
Flags: HW
LayerCount: 2
Fore
SplineSet
61 0 m 2
 55 0 50 12 50 27 c 0
 50 35 52 46 56 57 c 2
 305 698 l 1
 66 1379 l 1
 63 1391 60 1402 60 1411 c 0
 60 1426 64 1438 71 1438 c 2
 264 1438 l 2
 281 1438 297 1422 310 1385 c 2
 438 1019 l 1
 578 1388 l 2
 591 1423 609 1438 625 1438 c 2
 744 1438 l 2
 752 1438 757 1426 757 1411 c 0
 757 1403 756 1394 752 1386 c 2
 520 793 l 1
 769 59 l 2
 773 49 774 38 774 30 c 0
 774 14 770 0 761 0 c 2
 582 0 l 2
 565 0 550 15 537 52 c 2
 389 476 l 1
 223 50 l 2
 209 15 194 0 178 0 c 2
 61 0 l 2
EndSplineSet
EndChar

StartChar: Y
Encoding: 57 89 115
Width: 732
VWidth: 0
Flags: HW
LayerCount: 2
Fore
SplineSet
295 0 m 2
 280 0 270 8 270 51 c 2
 270 478 l 1
 39 1378 l 2
 35 1390 34 1398 34 1407 c 0
 34 1424 40 1438 50 1438 c 2
 198 1438 l 2
 214 1438 231 1420 240 1385 c 2
 381 820 l 1
 519 1384 l 2
 527 1417 544 1438 559 1438 c 2
 684 1438 l 2
 694 1438 700 1423 700 1406 c 0
 700 1397 699 1389 696 1378 c 2
 468 481 l 1
 468 51 l 2
 468 8 457 0 443 0 c 2
 295 0 l 2
EndSplineSet
EndChar

StartChar: Z
Encoding: 58 90 120
Width: 715
VWidth: 0
Flags: HW
LayerCount: 2
Fore
SplineSet
108 0 m 2
 94 0 83 3 83 40 c 2
 83 100 l 2
 83 139 91 160 99 185 c 2
 411 1245 l 1
 414 1251 415 1257 415 1263 c 0
 415 1272 412 1279 408 1279 c 2
 117 1279 l 2
 102 1279 92 1282 92 1319 c 2
 92 1398 l 2
 92 1435 102 1438 117 1438 c 2
 624 1438 l 2
 638 1438 649 1435 649 1398 c 2
 649 1353 l 2
 649 1307 639 1276 632 1251 c 2
 316 189 l 2
 315 184 314 178 314 173 c 0
 314 165 316 159 320 159 c 2
 636 159 l 2
 651 159 662 163 662 125 c 2
 662 40 l 2
 662 3 651 0 636 0 c 2
 108 0 l 2
EndSplineSet
EndChar

StartChar: a
Encoding: 65 97 124
Width: 724
VWidth: 0
Flags: HW
LayerCount: 2
Fore
SplineSet
286 -12 m 0
 155 -12 78 73 78 238 c 0
 78 624 448 581 472 615 c 1
 472 668 l 2
 472 800 450 882 363 882 c 0
 289 882 260 832 237 750 c 0
 230 728 222 723 213 724 c 1
 205 726 108 752 107 758 c 1
 99 762 99 795 105 818 c 0
 138 942 211 1017 374 1017 c 0
 536 1017 635 919 635 605 c 2
 635 50 l 2
 635 15 627 -1 614 -1 c 2
 582 -1 l 2
 570 -1 559 14 550 43 c 1
 546 64 514 153 511 174 c 1
 509 180 504 180 503 174 c 0
 469 59 411 -12 286 -12 c 0
321 116 m 0
 418 116 476 266 476 428 c 0
 476 442 476 504 467 504 c 0
 466 504 439 499 437 498 c 0
 292 461 228 380 228 251 c 0
 228 168 256 116 321 116 c 0
EndSplineSet
EndChar

StartChar: acute
Encoding: 113 180 128
Width: 597
VWidth: 0
Flags: HW
LayerCount: 2
Fore
SplineSet
363 1169 m 2
 353 1169 348 1174 348 1201 c 0
 348 1210 349 1222 350 1236 c 2
 370 1559 l 2
 373 1602 381 1614 396 1614 c 2
 477 1614 l 2
 483 1614 487 1602 487 1586 c 0
 487 1575 485 1561 483 1549 c 2
 420 1208 l 2
 417 1191 414 1169 401 1169 c 2
 363 1169 l 2
EndSplineSet
EndChar

StartChar: ae
Encoding: 161 230 130
Width: 1062
VWidth: 0
Flags: HW
LayerCount: 2
Fore
SplineSet
970 242 m 0
 970 103 914 -11 749 -11 c 0
 649 -11 569 71 534 223 c 1
 489 75 405 -12 282 -12 c 0
 151 -12 78 73 78 238 c 0
 78 624 434 581 458 615 c 1
 458 662 l 2
 458 793 443 882 356 882 c 0
 282 882 252 815 237 750 c 0
 231 728 222 723 213 724 c 1
 205 726 109 753 108 757 c 1
 99 762 99 792 105 818 c 0
 131 925 219 1017 356 1017 c 0
 444 1017 522 974 555 855 c 1
 590 968 668 1018 737 1018 c 0
 873 1018 973 910 978 550 c 0
 978 537 976 466 953 466 c 2
 630 466 l 2
 625 466 622 454 622 441 c 0
 622 240 663 125 755 125 c 0
 848 125 855 224 861 288 c 0
 863 302 869 310 878 310 c 2
 947 310 l 2
 968 310 970 286 970 258 c 0
 970 253 970 247 970 242 c 0
312 111 m 0
 409 111 462 266 462 428 c 0
 462 442 462 504 453 504 c 0
 452 504 425 499 423 498 c 0
 292 461 226 380 226 250 c 0
 226 168 247 111 312 111 c 0
626 572 m 2
 842 572 l 2
 845 572 845 588 845 597 c 0
 840 774 810 883 736 883 c 0
 676 883 627 799 622 622 c 0
 622 611 622 572 626 572 c 2
EndSplineSet
EndChar

StartChar: ampersand
Encoding: 6 38 133
Width: 1181
VWidth: 0
Flags: HW
LayerCount: 2
Fore
SplineSet
478 -18 m 0
 274 -18 112 90 112 405 c 0
 112 592 212 719 299 745 c 1
 218 766 110 863 110 1058 c 0
 110 1335 244 1459 437 1459 c 0
 521 1459 563 1443 586 1430 c 0
 600 1422 611 1412 611 1389 c 0
 611 1385 611 1380 610 1375 c 2
 604 1296 l 1
 603 1264 593 1256 577 1264 c 1
 567 1267 550 1285 475 1285 c 0
 402 1285 309 1238 308 1072 c 0
 308 953 358 835 463 835 c 2
 708 835 l 2
 716 835 723 845 723 865 c 2
 730 1354 l 2
 731 1397 743 1408 761 1408 c 2
 891 1408 l 2
 908 1408 920 1397 920 1354 c 2
 920 865 l 2
 920 845 926 835 934 835 c 2
 1083 835 l 2
 1101 835 1114 815 1114 776 c 2
 1114 731 l 2
 1114 691 1101 669 1083 669 c 2
 934 669 l 2
 926 669 920 660 920 640 c 2
 920 365 l 2
 920 201 970 157 1024 157 c 0
 1057 157 1087 171 1114 189 c 0
 1130 199 1142 182 1145 150 c 1
 1146 91 l 2
 1146 88 1146 84 1146 81 c 0
 1146 53 1138 30 1123 20 c 0
 1091 1 1045 -18 993 -18 c 0
 914 -18 803 24 764 125 c 1
 725 81 657 -18 478 -18 c 0
507 144 m 0
 682 144 716 261 727 283 c 1
 725 319 723 641 723 641 c 2
 723 661 716 669 708 669 c 2
 473 669 l 1
 381 668 310 555 310 407 c 0
 310 201 426 144 507 144 c 0
EndSplineSet
EndChar

StartChar: asciicircum
Encoding: 62 94 136
Width: 1030
VWidth: 0
Flags: HW
LayerCount: 2
Fore
SplineSet
118 351 m 2
 97 351 90 363 90 380 c 0
 90 391 93 405 98 418 c 2
 409 1290 l 1
 426 1332 441 1357 488 1357 c 2
 539 1357 l 2
 586 1357 598 1332 616 1289 c 1
 933 419 l 2
 937 407 941 394 941 382 c 0
 941 365 933 351 912 351 c 2
 834 351 l 2
 808 351 789 365 772 420 c 1
 534 1100 l 1
 526 1126 522 1131 513 1131 c 0
 504 1131 500 1126 492 1100 c 2
 263 420 l 1
 246 365 231 351 195 351 c 2
 118 351 l 2
EndSplineSet
EndChar

StartChar: asciitilde
Encoding: 94 126 137
Width: 949
VWidth: 0
Flags: HW
LayerCount: 2
Fore
SplineSet
293 532 m 0
 193 532 138 575 92 653 c 0
 85 665 79 677 79 691 c 0
 79 714.547851562 116.889648438 784 141 784 c 0
 155 784 161 775 165 767 c 0
 207 688 238 675 293 675 c 0
 403 676 532 804 660 804 c 0
 743 804 808 770 863 683 c 0
 868 675 870 666 870 656 c 0
 870 621 841 563 811 563 c 0
 802 563 793 568 784 581 c 0
 744 635 721 661 674 661 c 0
 562 661 427 532 293 532 c 0
EndSplineSet
EndChar

StartChar: asterisk
Encoding: 10 42 138
Width: 709
VWidth: 0
Flags: HW
LayerCount: 2
Fore
SplineSet
247 422 m 0
 221 422 184 436 184 460 c 0
 184 513 296 660 321 698 c 1
 135 753 l 2
 114 759 99 784 99 813 c 0
 99 846 115 878 141 878 c 0
 171 878 302 765 336 743 c 1
 326 829 309 911 309 997 c 0
 309 1031 331 1046 355 1046 c 0
 379 1046 400 1035 400 1001 c 0
 400 999 379 743 379 743 c 1
 537 843 l 2
 543 846 550 848 555 848 c 0
 582 848 604 818 604 790 c 0
 604 770 592 750 564 743 c 2
 388 698 l 1
 388 698 524 548 549 517 c 0
 555 510 558 502 558 494 c 0
 558 470 531 447 506 447 c 0
 493 447 481 453 472 467 c 2
 353 667 l 1
 269 431 l 2
 267 425 258 422 247 422 c 0
EndSplineSet
EndChar

StartChar: at
Encoding: 32 64 139
Width: 1381
VWidth: 0
Flags: HW
LayerCount: 2
Fore
SplineSet
721 -157 m 0
 296 -157 88 219 88 668 c 0
 88 1126 286 1504 707 1504 c 0
 1147 1504 1309 1149 1310 705 c 0
 1310 363 1200 230 1097 230 c 0
 1008 230 954 302 946 413 c 0
 944 433 941 450 935 450 c 0
 930 450 926 432 924 423 c 0
 884 292 819 207 679 207 c 0
 514 207 387 359 387 661 c 0
 387 951 506 1105 670 1105 c 0
 803 1105 878 1013 914 883 c 0
 916 875 920 868 922 868 c 0
 924 868 926 873 926 880 c 2
 938 1011 l 1
 943 1047 958 1060 981 1060 c 2
 989 1060 l 2
 1010 1060 1024 1036 1024 1003 c 2
 1024 487 l 2
 1024 361 1054 331 1095 331 c 0
 1138 331 1189 405 1189 705 c 0
 1189 1090 1065 1386 710 1386 c 0
 362 1386 218 1031 218 664 c 0
 218 311 344 -45 730 -45 c 0
 813 -45 911 -15 974 15 c 0
 975 15 976 16 977 16 c 0
 994 16 1019 -37 1019 -67 c 0
 1019 -76 1016 -83 1011 -86 c 0
 940 -126 823 -157 721 -157 c 0
697 327 m 0
 807 327 888 432 888 652 c 0
 888 864 808 977 698 977 c 0
 568 977 515 839 515 652 c 0
 515 460 574 327 697 327 c 0
EndSplineSet
EndChar

StartChar: b
Encoding: 66 98 141
Width: 765
VWidth: 0
Flags: HW
LayerCount: 2
Fore
SplineSet
433 -11 m 0
 348 -11 261 31 215 193 c 0
 214 196 212 198 211 198 c 0
 199 198 185 0 152 0 c 2
 124 0 l 2
 110 0 104 19 104 62 c 2
 104 1355 l 2
 104 1398 114 1428 129 1428 c 2
 240 1428 l 2
 255 1428 265 1398 265 1355 c 2
 265 884 l 2
 265 873 268 869 270 869 c 0
 273 869 276 873 277 876 c 0
 316 975 380 1018 446 1018 c 0
 565 1018 685 894 685 500 c 0
 685 124 556 -11 433 -11 c 0
399 125 m 0
 474 125 518 244 518 511 c 0
 518 752 471 882 398 882 c 0
 322 882 265 735 265 511 c 0
 265 291 320 125 399 125 c 0
EndSplineSet
EndChar

StartChar: backslash
Encoding: 60 92 142
Width: 581
VWidth: 0
Flags: HW
LayerCount: 2
Fore
SplineSet
345 -206 m 2
 338 -206 332 -192 329 -171 c 2
 94 1612 l 2
 94 1615 93 1618 93 1621 c 0
 93 1635 97 1647 102 1647 c 2
 241 1647 l 2
 248 1647 255 1633 257 1612 c 2
 491 -170 l 2
 492 -174 492 -178 492 -181 c 0
 492 -194 488 -205 484 -205 c 2
 345 -206 l 2
EndSplineSet
EndChar

StartChar: bar
Encoding: 92 124 143
Width: 329
VWidth: 0
Flags: HW
LayerCount: 2
Fore
SplineSet
143 -150 m 2
 128 -150 116 -123 116 -80 c 2
 116 1485 l 2
 116 1528 128 1555 143 1555 c 2
 185 1555 l 2
 200 1555 212 1528 212 1485 c 2
 212 -80 l 2
 212 -123 200 -150 185 -150 c 2
 143 -150 l 2
EndSplineSet
EndChar

StartChar: braceleft
Encoding: 91 123 144
Width: 526
VWidth: 0
Flags: HW
LayerCount: 2
Fore
SplineSet
427 1543 m 2
 441 1543 453 1518 453 1482 c 2
 453 1456 l 2
 453 1415 445 1393 416 1393 c 0
 368 1393 364 1357 363 1161 c 0
 363 1149 363 1016 363 1005 c 0
 362 865 355 755 293 731 c 0
 288 729 287 713 293 711 c 0
 353 688 360 589 360 456 c 0
 360 432 360 323 360 302 c 0
 361 96 365 47 416 47 c 0
 445 47 453 26 453 -16 c 2
 453 -42 l 2
 453 -78 441 -103 427 -103 c 2
 345 -103 l 2
 244 -103 201 -7 198 290 c 0
 198 308 198 407 198 423 c 0
 196 571 179 619 130 620 c 0
 98 621 90 641 90 696 c 2
 90 751 l 2
 90 803 100 817 130 818 c 0
 180 819 195 886 198 1029 c 0
 198 1040 199 1161 199 1168 c 0
 202 1466 247 1543 345 1543 c 2
 427 1543 l 2
EndSplineSet
EndChar

StartChar: braceright
Encoding: 93 125 145
Width: 526
VWidth: 0
Flags: HW
LayerCount: 2
Fore
SplineSet
116 -103 m 2
 102 -103 90 -78 90 -42 c 2
 90 -16 l 2
 90 26 98 47 127 47 c 0
 175 47 179 83 180 279 c 0
 180 291 180 425 180 435 c 0
 181 575 188 686 250 709 c 0
 255 711 256 727 250 730 c 0
 191 752 184 851 183 984 c 0
 183 1008 183 1117 183 1138 c 0
 182 1345 178 1393 127 1393 c 0
 98 1393 90 1415 90 1456 c 2
 90 1482 l 2
 90 1518 102 1543 116 1543 c 2
 198 1543 l 2
 299 1543 342 1448 345 1151 c 0
 345 1132 345 1033 345 1018 c 0
 348 869 365 821 413 820 c 0
 445 819 453 799 453 745 c 2
 453 690 l 2
 453 637 443 623 413 623 c 1
 363 621 348 555 346 412 c 0
 345 401 344 280 344 273 c 0
 341 -26 296 -103 198 -103 c 2
 116 -103 l 2
EndSplineSet
EndChar

StartChar: bracketleft
Encoding: 59 91 146
Width: 583
VWidth: 0
Flags: HW
LayerCount: 2
Fore
SplineSet
144 -125 m 2
 128 -125 116 -107 117 -64 c 1
 117 1408 l 1
 116 1451 128 1466 144 1466 c 2
 455 1466 l 2
 470 1466 481 1458 481 1415 c 2
 481 1307 l 2
 481 1264 470 1256 456 1256 c 2
 326 1256 l 2
 319 1256 314 1243 314 1223 c 2
 314 112 l 2
 314 92 319 80 326 80 c 2
 455 80 l 2
 470 80 481 65 481 22 c 2
 481 -71 l 2
 481 -114 470 -125 455 -125 c 2
 144 -125 l 2
EndSplineSet
EndChar

StartChar: bracketright
Encoding: 61 93 147
Width: 584
VWidth: 0
Flags: HW
LayerCount: 2
Fore
SplineSet
129 -128 m 2
 114 -128 103 -121 103 -78 c 2
 103 48 l 2
 103 91 114 99 129 99 c 2
 258 99 l 2
 265 99 269 112 269 132 c 2
 269 1210 l 2
 269 1230 265 1242 258 1242 c 2
 129 1242 l 2
 114 1242 103 1258 103 1301 c 2
 103 1409 l 2
 103 1452 114 1466 129 1466 c 2
 441 1466 l 2
 455 1466 468 1445 467 1402 c 1
 467 -71 l 1
 468 -114 456 -128 441 -128 c 2
 129 -128 l 2
EndSplineSet
EndChar

StartChar: breve
Encoding: 350 728 148
Width: 1504
VWidth: 0
Flags: HW
LayerCount: 2
Fore
SplineSet
616 1292 m 0
 520 1292 424 1349 423 1487 c 1
 510 1487 l 1
 510 1413 564 1387 618 1387 c 0
 672 1387 725 1413 725 1487 c 1
 810 1487 l 1
 809 1350 712 1292 616 1292 c 0
EndSplineSet
EndChar

StartChar: brokenbar
Encoding: 101 166 149
Width: 388
VWidth: 0
Flags: HW
LayerCount: 2
Fore
SplineSet
170 -123 m 2
 156 -123 145 -106 145 -63 c 2
 145 506 l 2
 145 549 156 566 170 566 c 2
 218 566 l 2
 233 566 243 549 243 506 c 2
 243 -63 l 2
 243 -106 233 -123 218 -123 c 2
 170 -123 l 2
170 852 m 2
 155 852 144 869 144 912 c 2
 144 1482 l 2
 144 1525 155 1542 170 1542 c 2
 217 1542 l 2
 232 1542 243 1525 243 1482 c 2
 243 912 l 2
 243 869 232 852 217 852 c 2
 170 852 l 2
EndSplineSet
EndChar

StartChar: bullet
Encoding: 390 8226 150
Width: 1193
VWidth: 0
Flags: HW
LayerCount: 2
Fore
SplineSet
596 616 m 0
 334 616 236 809 236 976 c 0
 236 1152 334 1339 596 1339 c 0
 858 1339 956 1152 956 976 c 0
 956 809 858 616 596 616 c 0
EndSplineSet
EndChar

StartChar: c
Encoding: 67 99 151
Width: 582
VWidth: 0
Flags: HW
LayerCount: 2
Fore
SplineSet
395 -11 m 1
 243 -11 81 43 81 509 c 0
 81 942 231 1018 377 1018 c 0
 422 1018 476 1006 511 995 c 0
 517 994 523 985 523 980 c 2
 523 874 l 1
 524 865 517 856 511 858 c 0
 484 866 454 876 419 876 c 0
 337 876 255 853 255 509 c 0
 255 151 328 132 419 132 c 0
 451 132 485 140 511 148 c 1
 517 147 524 135 524 127 c 2
 524 28 l 2
 524 19 517 9 511 7 c 0
 481 -2 437 -10 395 -11 c 1
EndSplineSet
EndChar

StartChar: caron
Encoding: 349 711 153
Width: 314
VWidth: 0
Flags: HW
LayerCount: 2
Fore
SplineSet
143 1225 m 2
 124 1225 107 1251 91 1301 c 1
 19 1499 l 1
 17 1508 15 1519 15 1529 c 0
 15 1542 18 1552 30 1553 c 1
 30 1558 55 1561 61 1561 c 0
 76 1561 87 1546 98 1521 c 1
 145 1402 l 1
 148 1391 152 1386 156 1386 c 0
 159 1386 162 1391 166 1402 c 2
 213 1521 l 2
 223 1546 235 1561 249 1561 c 0
 254 1561 280 1558 280 1553 c 1
 292 1552 296 1540 296 1526 c 0
 296 1517 294 1507 292 1499 c 2
 220 1301 l 1
 204 1251 187 1225 168 1225 c 2
 143 1225 l 2
EndSplineSet
EndChar

StartChar: cedilla
Encoding: 116 184 158
Width: 551
VWidth: 0
Flags: HW
LayerCount: 2
Fore
SplineSet
310 -591 m 0
 219 -591 149 -532 149 -424 c 0
 149 -395 151 -333 179 -333 c 2
 230 -333 l 2
 248 -333 253 -348 253 -367 c 0
 253 -384 249 -404 249 -418 c 0
 249 -469 270 -511 316 -511 c 0
 359 -511 382 -473 382 -367 c 0
 382 -291 348 -203 309 -203 c 2
 279 -203 l 1
 279 -203 267 -204 267 -193 c 2
 267 -133 l 2
 267 -123 270 -116 279 -116 c 2
 343 -116 l 2
 426 -116 482 -234 482 -345 c 0
 482 -512 431 -591 310 -591 c 0
EndSplineSet
EndChar

StartChar: cent
Encoding: 97 162 159
Width: 582
VWidth: 0
Flags: HW
LayerCount: 2
Fore
SplineSet
523 980 m 2
 523 874 l 1
 524 865 517 858 512 858 c 0
 491 861 466 871 446 873 c 1
 446 133 l 1
 469 136 492 142 511 148 c 1
 517 147 524 135 524 127 c 2
 524 28 l 2
 524 -3 472 -4 446 -7 c 1
 446 -127 l 2
 446 -165 437 -181 422 -181 c 2
 396 -181 l 2
 381 -181 372 -165 372 -127 c 2
 372 -11 l 1
 227 -5 81 67 81 509 c 0
 81 932 227 1016 372 1017 c 1
 372 1177 l 2
 372 1215 381 1230 396 1230 c 2
 422 1230 l 2
 437 1230 446 1215 446 1177 c 2
 446 1010 l 1
 463 1007 523 1002 523 980 c 2
372 136 m 1
 372 871 l 1
 310 854 255 788 255 509 c 0
 255 215 305 149 372 136 c 1
EndSplineSet
EndChar

StartChar: circumflex
Encoding: 348 710 160
Width: 314
VWidth: 0
Flags: HW
LayerCount: 2
Fore
SplineSet
62 1225 m 0
 56 1225 31 1228 31 1233 c 1
 19 1234 15 1246 15 1260 c 0
 15 1269 17 1279 19 1287 c 2
 91 1486 l 1
 107 1535 124 1561 143 1561 c 2
 168 1561 l 2
 187 1561 204 1535 220 1486 c 1
 292 1287 l 1
 294 1278 296 1266 296 1256 c 0
 296 1244 293 1234 281 1233 c 1
 281 1228 256 1225 250 1225 c 0
 235 1225 223 1241 213 1266 c 2
 166 1384 l 2
 162 1395 159 1401 155 1401 c 0
 152 1401 148 1395 145 1384 c 1
 98 1266 l 2
 87 1241 76 1225 62 1225 c 0
EndSplineSet
EndChar

StartChar: colon
Encoding: 26 58 161
Width: 340
VWidth: 0
Flags: HW
LayerCount: 2
Fore
SplineSet
126 0 m 2
 111 0 99 21 99 64 c 2
 99 268 l 2
 99 311 111 332 126 332 c 2
 214 332 l 2
 229 332 241 311 241 268 c 2
 241 64 l 2
 241 21 229 0 214 0 c 2
 126 0 l 2
126 690 m 2
 111 690 99 711 99 754 c 2
 99 958 l 2
 99 1001 111 1022 126 1022 c 2
 214 1022 l 2
 229 1022 241 1001 241 958 c 2
 241 754 l 2
 241 711 229 690 214 690 c 2
 126 690 l 2
EndSplineSet
EndChar

StartChar: comma
Encoding: 12 44 162
Width: 400
VWidth: 0
Flags: HW
LayerCount: 2
Fore
SplineSet
117 -316 m 0
 115 -317 113 -318 111 -318 c 0
 101 -318 92 -305 92 -275 c 2
 92 -257 l 2
 92 -213 95 -214 115 -191 c 0
 146 -153 162 -77 162 -27 c 0
 162 -11 161 0 156 0 c 2
 111 0 l 2
 97 0 90 19 90 57 c 2
 90 204 l 2
 90 247 102 264 117 264 c 2
 233 264 l 2
 247 264 259 243 259 200 c 2
 259 50 l 2
 259 -188 165 -293 117 -316 c 0
EndSplineSet
EndChar

StartChar: copyright
Encoding: 104 169 163
Width: 1443
VWidth: 0
Flags: HW
LayerCount: 2
Fore
SplineSet
736 337 m 0
 582 337 433 454 433 729 c 0
 433 1010 587 1115 725 1115 c 0
 801 1115 865 1092 911 1056 c 0
 919 1049 922 1036 922 1021 c 0
 922 993 909 959 892 959 c 0
 890 959 888 960 885 962 c 0
 846 988 798 1012 747 1012 c 0
 626 1012 547 915 547 728 c 0
 547 514 644 442 748 442 c 0
 822 442 846 463 883 481 c 0
 885 481 887 482 888 482 c 0
 905 482 923 446 923 416 c 0
 923 402 919 389 908 384 c 0
 849 352 807 337 736 337 c 0
724 93 m 0
 1098 93 1235 422 1235 717 c 0
 1235 1022 1098 1346 724 1346 c 0
 349 1346 213 1022 213 717 c 0
 213 422 349 93 724 93 c 0
721 -16 m 0
 295 -16 94 332 94 721 c 0
 94 1109 295 1458 721 1458 c 0
 1149 1458 1349 1109 1349 721 c 0
 1349 332 1149 -16 721 -16 c 0
EndSplineSet
EndChar

StartChar: currency
Encoding: 99 164 164
Width: 1193
VWidth: 0
Flags: HW
LayerCount: 2
Fore
SplineSet
596 515 m 0
 473 515 394 545 316 596 c 1
 288 568 l 2
 269 548 252 532 236 532 c 0
 228 532 220 535 213 543 c 2
 183 572 l 2
 174 582 170 591 170 599 c 0
 170 616 186 632 204 650 c 2
 227 673 l 1
 156 755 119 862 119 977 c 0
 119 1095 157 1203 229 1286 c 1
 204 1311 l 2
 185 1330 168 1347 168 1363 c 0
 168 1371 172 1379 180 1386 c 2
 210 1415 l 2
 219 1425 228 1428 237 1428 c 0
 254 1428 269 1413 288 1394 c 2
 319 1363 l 1
 397 1414 475 1444 596 1444 c 0
 717 1444 796 1414 874 1363 c 1
 904 1393 l 2
 924 1413 939 1428 957 1428 c 0
 965 1428 973 1425 982 1415 c 1
 1013 1386 l 1
 1020 1378 1024 1371 1024 1363 c 0
 1024 1347 1007 1330 988 1311 c 2
 963 1286 l 1
 1036 1203 1073 1095 1073 977 c 0
 1073 862 1037 756 966 673 c 1
 988 651 l 2
 1007 632 1023 616 1023 599 c 0
 1023 591 1019 582 1010 573 c 2
 980 543 l 2
 972 536 965 532 958 532 c 0
 940 532 924 548 905 568 c 2
 877 596 l 1
 798 545 719 515 596 515 c 0
596 616 m 0
 858 616 956 809 956 976 c 0
 956 1152 858 1339 596 1339 c 0
 334 1339 236 1152 236 976 c 0
 236 809 334 616 596 616 c 0
EndSplineSet
EndChar

StartChar: d
Encoding: 68 100 165
Width: 789
VWidth: 0
Flags: HW
LayerCount: 2
Fore
SplineSet
342 -11 m 0
 220 -11 79 69 79 500 c 0
 79 929 211 1018 335 1018 c 0
 407 1018 462 976 499 878 c 1
 502 874 505 869 507 868 c 0
 509 868 511 875 511 881 c 2
 511 1368 l 2
 511 1411 521 1428 536 1428 c 2
 660 1428 l 2
 674 1428 685 1411 685 1368 c 2
 685 67 l 2
 685 24 676 0 661 0 c 2
 632 0 l 2
 618 0 605 24 598 60 c 0
 594.478603071 79.9545825992 574.880945017 211.559527491 566 216 c 1
 564 214 562 211 559 204 c 1
 520 25 435 -11 342 -11 c 0
510 511 m 0
 510 771 459 882 381 882 c 0
 307 882 254 817 254 511 c 0
 254 191 302 125 380 125 c 0
 462 125 510 238 510 511 c 0
EndSplineSet
EndChar

StartChar: dagger
Encoding: 388 8224 166
Width: 524
VWidth: 0
Flags: HW
LayerCount: 2
Fore
SplineSet
215 0 m 2
 201 0 190 11 190 54 c 2
 190 898 l 1
 -76 898 l 2
 -119 898 -128 909 -128 923 c 2
 -128 1034 l 2
 -128 1049 -119 1061 -76 1061 c 2
 190 1061 l 1
 190 1402 l 2
 190 1445 201 1462 215 1462 c 2
 327 1462 l 2
 342 1462 352 1445 352 1402 c 2
 352 1061 l 1
 594 1061 l 2
 637 1061 651 1049 651 1034 c 2
 651 923 l 2
 651 909 637 898 594 898 c 2
 352 898 l 1
 352 54 l 2
 352 11 342 0 327 0 c 2
 215 0 l 2
EndSplineSet
EndChar

StartChar: daggerdbl
Encoding: 389 8225 167
Width: 524
VWidth: 0
Flags: HW
LayerCount: 2
Fore
SplineSet
215 0 m 2
 201 0 190 11 190 54 c 2
 190 367 l 1
 -76 367 l 2
 -119 367 -128 377 -128 391 c 2
 -128 503 l 2
 -128 518 -119 529 -76 529 c 2
 190 529 l 1
 190 934 l 1
 -76 934 l 2
 -119 934 -128 945 -128 959 c 2
 -128 1070 l 2
 -128 1085 -119 1097 -76 1097 c 2
 190 1097 l 1
 190 1402 l 2
 190 1445 201 1462 215 1462 c 2
 327 1462 l 2
 342 1462 352 1445 352 1402 c 2
 352 1097 l 1
 594 1097 l 2
 637 1097 651 1085 651 1070 c 2
 651 959 l 2
 651 945 637 934 594 934 c 2
 352 934 l 1
 352 529 l 1
 594 529 l 2
 637 529 651 518 651 503 c 2
 651 391 l 2
 651 377 637 367 594 367 c 2
 352 367 l 1
 352 54 l 2
 352 11 342 0 327 0 c 2
 215 0 l 2
EndSplineSet
EndChar

StartChar: dblgravecmb
Encoding: 414 783 168
Width: 597
VWidth: 0
Flags: HW
LayerCount: 2
Fore
SplineSet
216 1169 m 2
 203 1169 200 1189 195 1208 c 2
 121 1521 l 2
 118 1533 116 1545 116 1556 c 0
 116 1574 122 1586 130 1586 c 2
 204 1586 l 2
 219 1586 229 1574 232 1531 c 2
 253 1236 l 2
 254 1222 255 1208 255 1197 c 0
 255 1176 252 1169 243 1169 c 2
 216 1169 l 2
402 1169 m 2
 388 1169 385 1189 381 1208 c 2
 307 1521 l 2
 305 1533 303 1545 303 1556 c 0
 303 1574 308 1586 316 1586 c 2
 390 1586 l 2
 406 1586 416 1574 419 1531 c 2
 439 1236 l 2
 440 1222 442 1208 442 1197 c 0
 442 1176 438 1169 429 1169 c 2
 402 1169 l 2
EndSplineSet
EndChar

StartChar: dcroat
Encoding: 204 273 170
Width: 789
VWidth: 0
Flags: HW
LayerCount: 2
Fore
SplineSet
342 -11 m 0
 220 -11 79 69 79 500 c 0
 79 929 211 1018 335 1018 c 0
 407 1018 462 976 499 878 c 1
 502 874 505 869 507 868 c 0
 509 868 511 878 511 885 c 2
 511 1174 l 1
 337 1174 l 2
 314 1174 303 1185 303 1212 c 2
 303 1241 l 2
 303 1268 314 1280 337 1280 c 2
 511 1280 l 1
 511 1368 l 2
 511 1411 521 1428 536 1428 c 2
 660 1428 l 2
 674 1428 685 1411 685 1368 c 2
 685 1280 l 1
 752 1280 l 2
 775 1280 787 1268 787 1241 c 2
 787 1213 l 2
 787 1185 775 1174 752 1174 c 2
 685 1174 l 1
 685 67 l 2
 685 24 676 0 661 0 c 1
 661 0 629 1 628 3 c 1
 615 7 603 30 597 63 c 0
 594 79 573 186 572 199 c 0
 571 209 568 215 566 216 c 1
 564 214 562 211 559 204 c 1
 520 25 435 -11 342 -11 c 0
510 511 m 0
 510 771 459 882 381 882 c 0
 307 882 254 817 254 511 c 0
 254 191 302 125 380 125 c 0
 462 125 510 238 510 511 c 0
EndSplineSet
EndChar

StartChar: dieresis
Encoding: 103 168 171
Width: 317
VWidth: 0
Flags: HW
LayerCount: 2
Fore
SplineSet
52 0 m 2
 37 0 25 18 25 57 c 2
 25 139 l 2
 25 178 37 196 52 196 c 2
 112 196 l 2
 127 196 139 178 139 139 c 2
 139 57 l 2
 139 18 127 0 112 0 c 2
 52 0 l 2
278 0 m 2
 263 0 252 18 252 57 c 2
 252 139 l 2
 252 178 263 196 278 196 c 2
 339 196 l 2
 354 196 365 178 365 139 c 2
 365 57 l 2
 365 18 354 0 339 0 c 2
 278 0 l 2
EndSplineSet
EndChar

StartChar: dollar
Encoding: 4 36 172
Width: 776
VWidth: 0
Flags: HW
LayerCount: 2
Fore
SplineSet
388 1283 m 1
 307 1270 257 1184 257 1084 c 0
 257 974 315 915 388 867 c 1
 388 1283 l 1
439 168 m 1
 509 196 547 275 547 371 c 0
 547 474 505 533 439 583 c 1
 439 168 l 1
403 -198 m 2
 395 -198 388 -178 388 -132 c 2
 388 -15 l 1
 386 -15 384 -15 381 -15 c 0
 255 -15 135 36 47 168 c 0
 43 174 41 182 41 191 c 0
 41 237 89 309 124 309 c 0
 131 309 137 306 142 300 c 0
 213 209 293 157 381 157 c 0
 384 157 386 157 388 157 c 1
 388 618 l 1
 277 693 l 2
 177 760 85 857 85 1050 c 0
 85 1278 202 1447 388 1454 c 1
 388 1578 l 2
 388 1624 395 1643 403 1643 c 2
 425 1643 l 2
 433 1643 439 1624 439 1578 c 2
 439 1453 l 1
 536 1447 629 1410 700 1317 c 0
 707 1308 710 1297 710 1286 c 0
 710 1236 656 1173 631 1173 c 0
 627 1173 624 1174 622 1177 c 0
 571 1238 508 1275 439 1283 c 1
 439 834 l 1
 523 780 l 2
 630 711 724 599 724 400 c 0
 724 184 617 19 439 -10 c 1
 439 -132 l 2
 439 -178 433 -198 425 -198 c 2
 403 -198 l 2
EndSplineSet
EndChar

StartChar: dotaccent
Encoding: 351 729 173
Width: 398
VWidth: 0
Flags: HW
LayerCount: 2
Fore
SplineSet
72 43 m 2
 57 43 45 50 45 93 c 2
 45 232 l 2
 45 275 57 282 72 282 c 2
 212 282 l 2
 227 282 239 275 239 232 c 2
 239 93 l 2
 239 50 227 43 212 43 c 2
 72 43 l 2
EndSplineSet
EndChar

StartChar: dotlessi
Encoding: 234 305 174
Width: 363
VWidth: 0
Flags: HW
LayerCount: 2
Fore
SplineSet
133 0 m 2
 118 0 108 24 108 67 c 2
 108 940 l 2
 108 983 118 1006 133 1006 c 2
 245 1006 l 2
 259 1006 269 983 269 940 c 2
 269 67 l 2
 269 24 259 0 245 0 c 2
 133 0 l 2
EndSplineSet
EndChar

StartChar: e
Encoding: 69 101 175
Width: 695
VWidth: 0
Flags: HW
LayerCount: 2
Fore
SplineSet
623 242 m 0
 623 103 550 -11 385 -11 c 0
 245 -11 81 61 81 504 c 0
 81 951 241 1018 373 1018 c 0
 509 1018 631 917 631 536 c 0
 631 510 629 466 606 466 c 2
 258 466 l 2
 253 466 250 454 250 441 c 0
 251 240 298 125 390 125 c 0
 484 125 496 224 502 288 c 0
 504 302 510 310 519 310 c 2
 600 310 l 2
 621 310 623 286 623 258 c 0
 623 253 623 247 623 242 c 0
255 572 m 2
 484 572 l 2
 486 572 486 588 486 597 c 0
 481 785 445 883 372 883 c 0
 312 883 260 813 251 622 c 0
 251 611 251 572 255 572 c 2
EndSplineSet
EndChar

StartChar: eight
Encoding: 24 56 183
Width: 849
VWidth: 0
Flags: HW
LayerCount: 2
Fore
SplineSet
525 826 m 1
 541 844 563 966 563 1057 c 0
 563 1240 503 1301 426 1301 c 0
 345 1301 289 1244 289 1071 c 0
 289 895 351 848 525 826 c 1
426 -15 m 0
 262 -15 106 48 106 431 c 0
 106 611 164 746 217 794 c 1
 172 841 135 920 135 1068 c 0
 135 1376 275 1454 426 1454 c 0
 577 1454 712 1377 712 1064 c 0
 712 931 673 814 633 767 c 1
 705 705 744 606 744 425 c 0
 744 63 591 -15 426 -15 c 0
427 175 m 0
 517 175 576 229 576 444 c 0
 576 676 468 657 316 721 c 1
 292 670 271 545 271 457 c 0
 271 242 336 175 427 175 c 0
EndSplineSet
EndChar

StartChar: emdash
Encoding: 381 8212 186
Width: 2048
VWidth: 0
Flags: HW
LayerCount: 2
Fore
SplineSet
118 532 m 2
 102 532 92 540 92 583 c 2
 92 634 l 2
 92 677 102 684 118 684 c 2
 1928 684 l 2
 1942 684 1953 677 1953 634 c 2
 1953 583 l 2
 1953 540 1942 532 1928 532 c 2
 118 532 l 2
EndSplineSet
EndChar

StartChar: endash
Encoding: 380 8211 187
Width: 1024
VWidth: 0
Flags: HW
LayerCount: 2
Fore
SplineSet
115 532 m 6
 99 532 89 540 89 583 c 6
 89 634 l 6
 89 677 99 684 115 684 c 6
 905 684 l 6
 919 684 930 677 930 634 c 6
 930 583 l 6
 930 540 919 532 905 532 c 6
 115 532 l 6
EndSplineSet
EndChar

StartChar: equal
Encoding: 29 61 189
Width: 560
VWidth: 0
Flags: HW
LayerCount: 2
Fore
SplineSet
72 338 m 2
 57 338 48 341 48 384 c 2
 48 425 l 2
 48 468 57 470 72 470 c 2
 488 470 l 2
 503 470 512 468 512 425 c 2
 512 384 l 2
 512 341 503 338 488 338 c 2
 72 338 l 2
72 617 m 2
 57 617 48 620 48 663 c 2
 48 704 l 2
 48 747 57 750 72 750 c 2
 488 750 l 2
 503 750 512 747 512 704 c 2
 512 663 l 2
 512 620 503 617 488 617 c 2
 72 617 l 2
EndSplineSet
EndChar

StartChar: eth
Encoding: 171 240 190
Width: 805
VWidth: 0
Flags: HW
LayerCount: 2
Fore
SplineSet
397 -18 m 0
 224 -18 74 72 74 440 c 0
 74 720 178 894 378 894 c 0
 438 894 482 880 539 839 c 1
 531 939 488 1024 436 1099 c 1
 318 1018 l 1
 297 1005 283 1012 266 1034 c 1
 251 1050 l 1
 237 1075 243 1089 261 1104 c 1
 353 1164 l 1
 294 1203 230 1231 160 1251 c 0
 153 1252 142 1261 142 1282 c 0
 142 1286 150 1325 157 1325 c 1
 159 1353 168 1364 180 1364 c 0
 181 1364 181 1364 182 1364 c 0
 271 1344 368 1316 454 1255 c 1
 576 1340 l 1
 582 1346 588 1349 595 1349 c 0
 607 1349 618 1340 628 1325 c 1
 646 1305 l 1
 663 1283 654 1267 636 1251 c 1
 534 1185 l 1
 648 1050 722 858 722 580 c 0
 722 130 630 -18 397 -18 c 0
400 113 m 0
 492 113 560 182 560 480 c 0
 560 639 504 763 398 763 c 0
 276 763 241 631 241 456 c 0
 241 205 294 113 400 113 c 0
EndSplineSet
EndChar

StartChar: exclam
Encoding: 1 33 191
Width: 402
VWidth: 0
Flags: HW
LayerCount: 2
Fore
SplineSet
132 0 m 2
 117 0 105 8 105 51 c 2
 105 203 l 2
 105 246 117 253 132 253 c 2
 269 253 l 2
 284 253 295 246 295 203 c 2
 295 51 l 2
 295 8 284 0 269 0 c 2
 132 0 l 2
183 468 m 2
 168 468 162 499 160 541 c 2
 116 1428 l 2
 116 1431 116 1434 116 1437 c 0
 116 1475 128 1502 142 1502 c 2
 260 1502 l 2
 274 1502 286 1478 286 1441 c 0
 286 1437 286 1433 286 1429 c 2
 243 541 l 2
 241 499 236 468 221 468 c 2
 183 468 l 2
EndSplineSet
EndChar

StartChar: f
Encoding: 70 102 193
Width: 485
VWidth: 0
Flags: HW
LayerCount: 2
Fore
SplineSet
152 0 m 2
 138 0 126 18 126 61 c 2
 126 825 l 2
 126 845 126 857 119 857 c 2
 67 857 l 2
 52 857 44 863 44 898 c 2
 44 959 l 2
 44 994 52 1006 67 1006 c 2
 119 1006 l 2
 126 1006 126 1019 126 1041 c 0
 126 1394 211 1459 347 1459 c 0
 377 1459 430 1456 444 1453 c 0
 455 1451 467 1445 467 1417 c 2
 467 1352 l 2
 467 1316 466 1307 454 1307 c 2
 391 1307 l 2
 322 1307 294 1261 294 1100 c 2
 294 1012 l 2
 294 1009 296 1006 297 1006 c 2
 438 1006 l 2
 452 1006 460 998 460 964 c 2
 460 898 l 2
 460 864 452 857 438 857 c 2
 302 857 l 2
 296 857 294 845 294 825 c 2
 294 61 l 2
 294 18 282 0 268 0 c 2
 152 0 l 2
EndSplineSet
EndChar

StartChar: ffi
Encoding: 417 64259 194
Width: 1333
VWidth: 0
Flags: HW
LayerCount: 2
Fore
SplineSet
1099 1161 m 2
 1084 1161 1074 1172 1074 1215 c 2
 1074 1344 l 2
 1074 1387 1084 1397 1099 1397 c 2
 1218 1397 l 2
 1233 1397 1243 1387 1243 1344 c 2
 1243 1215 l 2
 1243 1172 1233 1161 1218 1161 c 2
 1099 1161 l 2
1103 0 m 2
 1088 0 1078 24 1078 67 c 2
 1078 857 l 1
 787 857 l 2
 781 857 779 845 779 825 c 2
 779 61 l 2
 779 18 767 0 753 0 c 2
 637 0 l 2
 623 0 611 18 611 61 c 2
 611 825 l 2
 611 845 611 857 604 857 c 2
 302 857 l 2
 296 857 294 845 294 825 c 2
 294 61 l 2
 294 18 282 0 268 0 c 2
 152 0 l 2
 138 0 126 18 126 61 c 2
 126 825 l 2
 126 845 126 857 119 857 c 2
 67 857 l 2
 52 857 44 863 44 898 c 2
 44 959 l 2
 44 994 52 1006 67 1006 c 2
 119 1006 l 2
 126 1006 126 1019 126 1041 c 0
 126 1394 211 1459 347 1459 c 0
 377 1459 430 1456 444 1453 c 0
 455 1451 467 1445 467 1417 c 2
 467 1352 l 2
 467 1316 466 1307 454 1307 c 2
 391 1307 l 2
 322 1307 294 1261 294 1100 c 2
 294 1012 l 2
 294 1009 296 1006 297 1006 c 2
 604 1006 l 2
 611 1006 611 1019 611 1041 c 0
 611 1394 696 1459 832 1459 c 0
 862 1459 915 1456 929 1453 c 0
 940 1451 952 1445 952 1417 c 2
 952 1352 l 2
 952 1316 951 1307 939 1307 c 2
 876 1307 l 2
 807 1307 779 1261 779 1100 c 2
 779 1012 l 2
 779 1009 781 1006 782 1006 c 2
 1215 1006 l 2
 1229 1006 1239 983 1239 940 c 2
 1239 67 l 2
 1239 24 1229 0 1215 0 c 2
 1103 0 l 2
EndSplineSet
EndChar

StartChar: five
Encoding: 21 53 195
Width: 841
VWidth: 0
Flags: HW
LayerCount: 2
Fore
SplineSet
399 -15 m 1
 347 -14 177 23 137 51 c 0
 124 60 118 84 118 104 c 0
 118 114 120 212 137 212 c 0
 139 212 142 211 145 209 c 0
 159 203 250 148 368 148 c 0
 546 148 584 268 584 477 c 0
 584 613 568 788 407 788 c 0
 258 788 256 641 203 641 c 2
 155 641 l 2
 131 641 133 681 132 721 c 2
 112 1345 l 2
 112 1350 112 1354 112 1358 c 0
 112 1410 118 1438 141 1438 c 2
 688 1438 l 2
 701 1438 710 1419 710 1393 c 2
 708 1310 l 1
 706 1280 702 1267 693 1267 c 2
 273 1267 l 2
 258 1267 250 1256 250 1217 c 0
 250 1215 253 822 253 822 c 1
 278 861 342 938 479 938 c 0
 679 938 761 753 761 464 c 0
 761 80 613 -15 399 -15 c 1
EndSplineSet
EndChar

StartChar: florin
Encoding: 304 402 196
Width: 526
VWidth: 0
Flags: HW
LayerCount: 2
Fore
SplineSet
5 -139 m 0
 -23.3047195627 -139 -35 -133.026300639 -35 -104 c 0
 -35 -91 -33 -63 -33 -59 c 0
 -30 -25 -29 -7 -15 -7 c 2
 1 -7 l 2
 71 -7 106 33 120 200 c 2
 166 766 l 2
 167 786 169 797 162 797 c 2
 86 797 l 2
 71 797 64 804 68 839 c 2
 74 900 l 2
 78 934 87 947 102 947 c 2
 178 947 l 2
 185 947 187 986 189 1008 c 0
 219 1333 312 1407 448 1407 c 0
 493 1407 522 1393 522 1383 c 1
 523 1383 523 1370 523 1356 c 0
 523 1342 523 1328 523 1325 c 0
 521 1291 518 1272 505 1272 c 2
 478 1272 l 2
 409 1272 376 1226 360 1065 c 1
 348 953 l 2
 348 950 349 947 350 947 c 2
 460 947 l 2
 476 947 481 936 478 904 c 2
 472 839 l 2
 468 804 459 797 444 797 c 2
 346 797 l 2
 339 797 335 786 334 766 c 2
 295 260 l 1
 271 -35 167 -139 31 -139 c 0
 21 -139 13 -139 5 -139 c 0
EndSplineSet
EndChar

StartChar: four
Encoding: 20 52 197
Width: 894
VWidth: 0
Flags: HW
LayerCount: 2
Fore
SplineSet
571 -1 m 2
 547 -1 534 18 534 60 c 2
 534 285 l 1
 136 285 l 2
 109 285 87 306 87 338 c 0
 87 342 87 347 88 352 c 2
 231 1370 l 1
 238 1412 244 1438 269 1438 c 2
 351 1438 l 2
 374 1438 386 1415 386 1387 c 0
 386 1382 386 1376 385 1370 c 2
 287 489 l 2
 286 482 291 460 305 460 c 2
 534 460 l 1
 534 1377 l 2
 534 1419 547 1438 571 1438 c 2
 668 1438 l 2
 692 1438 705 1419 705 1377 c 2
 705 460 l 1
 835 460 l 2
 865 460 879 443 879 404 c 2
 879 341 l 2
 879 302 865 285 835 285 c 2
 705 285 l 1
 705 60 l 2
 705 18 692 -1 668 -1 c 2
 571 -1 l 2
EndSplineSet
EndChar

StartChar: fraction
Encoding: 395 8260 198
Width: 569
VWidth: 0
Flags: HW
LayerCount: 2
Fore
SplineSet
86 -205 m 2
 82 -205 78 -193 78 -180 c 0
 78 -177 79 -175 79 -172 c 2
 381 1614 l 2
 384 1634 392 1647 399 1647 c 2
 488 1647 l 2
 493 1647 496 1637 496 1625 c 0
 496 1621 496 1618 495 1614 c 2
 194 -173 l 2
 191 -193 183 -206 176 -206 c 2
 86 -205 l 2
EndSplineSet
EndChar

StartChar: g
Encoding: 71 103 199
Width: 799
VWidth: 0
Flags: HW
LayerCount: 2
Fore
SplineSet
436 456 m 0
 520 456 563 540 563 670 c 0
 563 810 508 908 427 908 c 0
 347 908 299 818 299 682 c 0
 299 533 356 456 436 456 c 0
425 -202 m 0
 558 -202 624 -142 624 -38 c 0
 624 58 559 69 488 69 c 6
 374 69 l 6
 357 69 305 -18 305 -101 c 0
 305 -153 326 -202 425 -202 c 0
411 -307 m 0
 245 -307 151 -246 151 -139 c 0
 151 -72 183 1 236 80 c 0
 239 84 240 90 240 94 c 0
 240 101 239 106 234 109 c 0
 176 132 134 142 134 219 c 0
 134 320 172 362 208 407 c 0
 213 414 215 421 215 426 c 0
 215 432 213 439 209 444 c 0
 174 483 127 569 127 674 c 0
 127 870 218 1018 418 1018 c 0
 449 1018 472 1011 488 1007 c 0
 500 1005 506 1006 507 1022 c 2
 517 1280 l 2
 519 1322 532 1324 548 1324 c 2
 629 1324 l 2
 639 1324 645 1295 641 1281 c 2
 575 997 l 2
 569 972 576 967 591 958 c 1
 645 918 721 836 721 675 c 0
 721 469 630 346 442 346 c 0
 398 346 345 362 314 380 c 1
 299 369 272 324 272 272 c 0
 272 217 308 188 376 188 c 2
 483 188 l 2
 684 188 765 122 765 -25 c 0
 765 -255 560 -307 411 -307 c 0
EndSplineSet
EndChar

StartChar: grave
Encoding: 64 96 204
Width: 597
VWidth: 0
Flags: HW
LayerCount: 2
Fore
SplineSet
434 1169 m 2
 421 1169 418 1191 415 1208 c 2
 352 1549 l 2
 350 1561 348 1575 348 1586 c 0
 348 1602 351 1614 358 1614 c 2
 440 1614 l 2
 455 1614 461 1602 464 1559 c 2
 486 1236 l 2
 487 1222 487 1210 487 1201 c 0
 487 1174 482 1169 472 1169 c 2
 434 1169 l 2
EndSplineSet
EndChar

StartChar: greater
Encoding: 30 62 205
Width: 1073
VWidth: 0
Flags: HW
LayerCount: 2
Fore
SplineSet
187 145 m 0
 167 145 154 164 154 189 c 2
 154 244 l 2
 154 291 173 308 201 340 c 1
 426 619 l 2
 432 626 434 632 434 638 c 0
 434 644 431 650 425 655 c 1
 202 925 l 1
 173 957 154 971 154 1017 c 2
 154 1081 l 2
 154 1104 167 1122 187 1122 c 0
 194 1122 203 1117 212 1110 c 1
 503 768 l 1
 537 730 559 708 559 662 c 2
 559 613 l 2
 559 567 536 545 502 506 c 1
 213 156 l 1
 204 149 195 145 187 145 c 0
EndSplineSet
EndChar

StartChar: guillemotleft
Encoding: 106 171 206
Width: 829
VWidth: 0
Flags: HW
LayerCount: 2
Fore
SplineSet
396 218 m 1
 394 218 212 406 210 408 c 0
 198 420 98 545 98 575 c 1
 91 583 90 695 90 702 c 0
 90 733 92 783 105 795 c 1
 105 803 285 984 294 993 c 0
 296 995 393 1098 395 1098 c 0
 396 1098 396 1098 397 1098 c 0
 403 1098 408 1087 410 1071 c 1
 412 1071 413 974 413 964 c 0
 413 934 407 901 398 888 c 1
 398 873 284 772 277 764 c 0
 275 763 191 668 191 664 c 0
 190 660 191 653 193 650 c 1
 193 648 305 544 306 543 c 0
 316 530 405 420 405 390 c 1
 412 383 413 280 413 265 c 0
 413 248 408 226 404 226 c 1
 403 219 400 217 398 217 c 0
 397 217 397 217 396 218 c 1
736 218 m 0
 735 218 552 406 550 408 c 0
 538 420 439 545 439 575 c 1
 431 583 430 695 430 702 c 0
 430 733 433 783 445 795 c 1
 445 803 626 984 634 993 c 0
 637 995 734 1098 735 1098 c 0
 736 1098 736 1098 737 1098 c 0
 743 1098 749 1087 750 1071 c 1
 753 1071 754 974 754 964 c 0
 754 934 747 901 738 888 c 1
 738 873 625 772 618 764 c 0
 616 763 532 668 532 664 c 0
 531 660 531 653 533 650 c 1
 533 648 646 544 647 543 c 0
 656 530 746 420 746 390 c 1
 753 383 754 280 754 265 c 0
 754 248 749 226 744 226 c 1
 743 219 741 217 739 217 c 0
 738 217 737 217 736 218 c 0
EndSplineSet
EndChar

StartChar: guillemotright
Encoding: 118 187 207
Width: 829
VWidth: 0
Flags: HW
LayerCount: 2
Fore
SplineSet
103 214 m 0
 96 214 90 229 90 255 c 2
 90 358 l 2
 90 403 97 431 114 450 c 1
 309 632 l 2
 312 635 313 642 313 647 c 0
 313 653 312 659 309 662 c 2
 113 854 l 1
 97 874 90 903 90 948 c 2
 90 1057 l 2
 90 1084 96 1101 103 1101 c 0
 106 1101 109 1098 113 1094 c 2
 390 807 l 2
 410 786 413 751 413 712 c 2
 413 587 l 2
 413 548 410 512 390 493 c 2
 113 222 l 2
 108 217 105 214 103 214 c 0
443 215 m 0
 436 215 430 230 430 255 c 2
 430 358 l 2
 430 403 438 431 454 450 c 1
 650 632 l 2
 653 635 653 642 653 647 c 0
 653 653 652 659 650 662 c 2
 454 854 l 1
 437 874 430 903 430 948 c 2
 430 1057 l 2
 430 1084 437 1101 444 1101 c 0
 446 1101 450 1098 453 1094 c 2
 730 807 l 2
 750 786 754 751 754 712 c 2
 754 587 l 2
 754 548 750 512 730 493 c 2
 453 222 l 2
 449 217 446 215 443 215 c 0
EndSplineSet
EndChar

StartChar: guilsinglleft
Encoding: 393 8249 208
Width: 524
VWidth: 0
Flags: HW
LayerCount: 2
Fore
SplineSet
396 218 m 1
 394 218 212 406 210 408 c 0
 198 420 98 545 98 575 c 1
 91 583 90 695 90 702 c 0
 90 733 92 783 105 795 c 1
 105 803 285 984 294 993 c 0
 296 995 393 1098 395 1098 c 0
 396 1098 396 1098 397 1098 c 0
 403 1098 408 1087 410 1071 c 1
 412 1071 413 974 413 964 c 0
 413 934 407 901 398 888 c 1
 398 873 284 772 277 764 c 0
 275 763 191 668 191 664 c 0
 190 660 191 653 193 650 c 1
 193 648 305 544 306 543 c 0
 316 530 405 420 405 390 c 1
 412 383 413 280 413 265 c 0
 413 248 408 226 404 226 c 1
 403 219 400 217 398 217 c 0
 397 217 397 217 396 218 c 1
EndSplineSet
EndChar

StartChar: guilsinglright
Encoding: 394 8250 209
Width: 524
VWidth: 0
Flags: HW
LayerCount: 2
Fore
SplineSet
103 215 m 0
 96 215 90 230 90 255 c 2
 90 358 l 2
 90 403 97 431 114 450 c 1
 309 632 l 2
 312 635 313 642 313 647 c 0
 313 653 312 659 309 662 c 2
 113 854 l 1
 97 874 90 903 90 948 c 2
 90 1057 l 2
 90 1084 96 1101 103 1101 c 0
 106 1101 109 1098 113 1094 c 2
 390 807 l 2
 410 786 413 751 413 712 c 2
 413 587 l 2
 413 548 410 512 390 493 c 2
 113 222 l 2
 108 218 105 215 103 215 c 0
EndSplineSet
EndChar

StartChar: h
Encoding: 72 104 210
Width: 785
VWidth: 0
Flags: HW
LayerCount: 2
Fore
SplineSet
130 0 m 2
 115 0 104 6 104 49 c 2
 104 1384 l 2
 104 1427 115 1437 130 1437 c 2
 257 1437 l 2
 272 1437 282 1427 282 1384 c 2
 282 878 l 2
 282 867 285 863 287 863 c 0
 289 863 292 866 294 869 c 0
 339 980 423 1018 485 1018 c 0
 608 1018 694 921 694 574 c 2
 694 49 l 2
 694 6 683 0 669 0 c 2
 541 0 l 2
 526 0 516 6 516 49 c 2
 516 595 l 2
 516 798 492 882 422 882 c 0
 344 882 282 763 282 588 c 2
 282 49 l 2
 282 6 272 0 258 0 c 2
 130 0 l 2
EndSplineSet
EndChar

StartChar: hbar
Encoding: 224 295 211
Width: 785
VWidth: 0
Flags: HW
LayerCount: 2
Fore
SplineSet
130 0 m 2
 115 0 104 6 104 49 c 2
 104 1174 l 1
 41 1174 l 2
 18 1174 6 1185 6 1212 c 2
 6 1241 l 2
 6 1268 18 1280 41 1280 c 2
 104 1280 l 1
 104 1384 l 2
 104 1427 115 1437 130 1437 c 2
 257 1437 l 2
 272 1437 282 1427 282 1384 c 2
 282 1280 l 1
 468 1280 l 2
 490 1280 502 1268 502 1241 c 2
 502 1213 l 2
 502 1185 490 1174 468 1174 c 2
 282 1174 l 1
 282 878 l 2
 282 867 285 863 287 863 c 0
 289 863 292 866 294 869 c 0
 339 980 423 1018 485 1018 c 0
 608 1018 694 921 694 574 c 2
 694 49 l 2
 694 6 683 0 669 0 c 2
 541 0 l 2
 526 0 516 6 516 49 c 2
 516 595 l 2
 516 798 492 882 422 882 c 0
 344 882 282 763 282 588 c 2
 282 49 l 2
 282 6 272 0 258 0 c 2
 130 0 l 2
EndSplineSet
EndChar

StartChar: hungarumlaut
Encoding: 355 733 213
Width: 597
VWidth: 0
Flags: HW
LayerCount: 2
Fore
SplineSet
204 1169 m 2
 194 1169 190 1174 190 1201 c 0
 190 1210 191 1222 192 1236 c 2
 212 1559 l 2
 215 1602 222 1614 237 1614 c 2
 319 1614 l 2
 325 1614 328 1602 328 1586 c 0
 328 1575 326 1561 324 1549 c 2
 250 1208 l 1
 247 1189 245 1169 231 1169 c 2
 204 1169 l 2
363 1169 m 2
 353 1169 349 1174 349 1201 c 0
 349 1210 349 1222 350 1236 c 2
 371 1559 l 2
 374 1602 380 1614 396 1614 c 2
 477 1614 l 2
 484 1614 487 1602 487 1586 c 0
 487 1575 485 1561 483 1549 c 2
 409 1208 l 2
 405 1189 402 1169 390 1169 c 2
 363 1169 l 2
EndSplineSet
EndChar

StartChar: hyphen
Encoding: 13 45 214
Width: 656
VWidth: 0
Flags: HW
LayerCount: 2
Fore
SplineSet
115 532 m 6
 99 532 89 540 89 583 c 6
 89 634 l 6
 89 677 99 684 115 684 c 6
 542 684 l 6
 556 684 567 677 567 634 c 6
 567 583 l 6
 567 540 556 532 542 532 c 6
 115 532 l 6
EndSplineSet
EndChar

StartChar: i
Encoding: 73 105 215
Width: 363
VWidth: 0
Flags: HW
LayerCount: 2
Fore
SplineSet
133 0 m 2
 118 0 108 24 108 67 c 2
 108 940 l 2
 108 983 118 1006 133 1006 c 2
 245 1006 l 2
 259 1006 269 983 269 940 c 2
 269 67 l 2
 269 24 259 0 245 0 c 2
 133 0 l 2
129 1161 m 2
 114 1161 104 1172 104 1215 c 2
 104 1344 l 2
 104 1387 114 1397 129 1397 c 2
 248 1397 l 2
 263 1397 273 1387 273 1344 c 2
 273 1215 l 2
 273 1172 263 1161 248 1161 c 2
 129 1161 l 2
EndSplineSet
EndChar

StartChar: integral
Encoding: 403 8747 223
Width: 526
VWidth: 0
Flags: HW
LayerCount: 2
Fore
SplineSet
-15 -7 m 2
 1 -7 l 2
 71 -7 106 33 120 200 c 2
 189 1008 l 1
 218 1333 312 1407 448 1407 c 0
 493 1407 528 1394 528 1377 c 0
 528 1350 523 1272 505 1272 c 2
 478 1272 l 2
 409 1272 373 1226 360 1065 c 2
 295 260 l 1
 270 -35 167 -139 31 -139 c 0
 21 -139 9 -139 1 -139 c 0
 -25 -139 -38 -136 -38 -105 c 0
 -38 -78 -33 -7 -15 -7 c 2
EndSplineSet
EndChar

StartChar: j
Encoding: 74 106 226
Width: 404
VWidth: 0
Flags: HW
LayerCount: 2
Fore
SplineSet
34 -335 m 2
 19 -335 9 -311 9 -277 c 2
 9 -216 l 2
 9 -185 17 -165 33 -165 c 2
 72 -165 l 2
 117 -165 146 -144 146 -6 c 2
 146 940 l 2
 146 983 156 1006 171 1006 c 2
 282 1006 l 2
 298 1006 307 983 307 940 c 2
 307 -3 l 2
 307 -307 222 -335 118 -335 c 2
 34 -335 l 2
167 1161 m 2
 152 1161 142 1172 142 1215 c 2
 142 1344 l 2
 142 1387 152 1397 167 1397 c 2
 286 1397 l 2
 301 1397 311 1387 311 1344 c 2
 311 1215 l 2
 311 1172 301 1161 286 1161 c 2
 167 1161 l 2
EndSplineSet
EndChar

StartChar: k
Encoding: 75 107 228
Width: 706
VWidth: 0
Flags: HW
LayerCount: 2
Fore
SplineSet
130 0 m 2
 116 0 105 18 105 61 c 2
 105 1402 l 2
 105 1445 116 1462 130 1462 c 2
 243 1462 l 2
 257 1462 268 1445 268 1402 c 2
 268 550 l 2
 268 541 270 535 274 535 c 1
 274 535 275 536 277 538 c 2
 337.413085938 679.799804688 l 1
 473 953 l 2
 487.911132812 983.044921875 506 1006 521 1006 c 2
 651 1006 l 2
 656 1006 660 996 660 984 c 0
 660 974 657 963 651 953 c 1
 459 575 l 2
 456 570 455 563 455 556 c 0
 455 549 456 543 458 538 c 2
 668 59 l 2
 672.325195312 49.134765625 674 38 674 29 c 0
 674 14 669 0 663 0 c 2
 536 0 l 2
 521 0 510.000976562 11.6552734375 498 48 c 2
 345 472 l 2
 342.723632812 478.309570312 341 482 337 482 c 0
 335 482 331 480 330 475 c 1
 320 461 276 366 275 365 c 0
 271 354 268 337 268 318 c 2
 268 61 l 2
 268 18 257 0 243 0 c 2
 130 0 l 2
EndSplineSet
EndChar

StartChar: kgreenlandic
Encoding: 241 312 230
Width: 706
VWidth: 0
Flags: HW
LayerCount: 2
Fore
SplineSet
130 0 m 2
 116 0 105 18 105 61 c 2
 105 946 l 2
 105 989 116 1006 130 1006 c 2
 243 1006 l 2
 257 1006 268 989 268 946 c 2
 268 590 l 2
 268 581 270 575 274 575 c 1
 274 575 275 576 277 578 c 2
 463 953 l 2
 481 989 495 1006 514 1006 c 2
 651 1006 l 2
 656 1006 660 996 660 984 c 0
 660 974 657 963 651 953 c 1
 469 579 l 2
 466 574 465 567 465 560 c 0
 465 553 466 547 468 542 c 2
 668 59 l 2
 672 49 674 38 674 29 c 0
 674 14 669 0 663 0 c 2
 523 0 l 2
 508 0 498 12 485 48 c 2
 345 442 l 2
 342 448 341 452 337 452 c 0
 335 452 331 450 330 445 c 1
 320 431 276 336 275 335 c 0
 271 324 268 307 268 288 c 2
 268 61 l 2
 268 18 257 0 243 0 c 2
 130 0 l 2
EndSplineSet
EndChar

StartChar: l
Encoding: 76 108 231
Width: 363
VWidth: 0
Flags: HW
LayerCount: 2
Fore
SplineSet
135 0 m 2
 120 0 110 11 110 54 c 2
 110 1402 l 2
 110 1445 120 1462 135 1462 c 2
 247 1462 l 2
 261 1462 272 1445 272 1402 c 2
 272 54 l 2
 272 11 261 0 247 0 c 2
 135 0 l 2
EndSplineSet
EndChar

StartChar: less
Encoding: 28 60 236
Width: 1073
VWidth: 0
Flags: HW
LayerCount: 2
Fore
SplineSet
526 145 m 0
 519 145 510 151 500 158 c 1
 209 499 l 1
 175 537 154 560 154 606 c 2
 154 655 l 2
 154 701 176 723 210 762 c 1
 500 1112 l 1
 508 1119 517 1122 525 1122 c 0
 545 1122 559 1103 559 1079 c 2
 559 1023 l 2
 559 976 540 960 511 928 c 1
 287 648 l 2
 281 642 278 636 278 630 c 0
 278 624 281 618 287 612 c 2
 511 342 l 1
 540 311 559 297 559 250 c 2
 559 187 l 2
 559 164 545 145 526 145 c 0
EndSplineSet
EndChar

StartChar: logicalnot
Encoding: 107 172 237
Width: 1106
VWidth: 0
Flags: HW
LayerCount: 2
Fore
SplineSet
837 239 m 2
 802 239 785 262 785 304 c 2
 785 543 l 2
 785 563 772 575 756 575 c 2
 181 575 l 2
 147 575 129 589 129 628 c 2
 129 688 l 2
 129 728 147 742 181 742 c 2
 915 742 l 2
 949 742 976 723 976 684 c 2
 976 304 l 2
 976 262 959 239 925 239 c 2
 837 239 l 2
EndSplineSet
EndChar

StartChar: lozenge
Encoding: 408 9674 238
Width: 822
VWidth: 0
Flags: HW
LayerCount: 2
Fore
SplineSet
326 -202 m 1
 310 -201 298 -193 289 -152 c 1
 99 615 l 2
 98 621 97 629 97 637 c 0
 97 642 97 647 98 650 c 2
 287 1411 l 1
 296 1452 307 1459 323 1461 c 1
 499 1461 l 1
 515 1459 526 1452 535 1411 c 1
 724 650 l 2
 725 646 725 638 725 632 c 0
 725 626 725 619 725 615 c 2
 537 -152 l 1
 529 -193 517 -201 501 -202 c 1
 326 -202 l 1
410 12 m 0
 412 12 413 14 414 18 c 2
 544 645 l 1
 419 1240 l 2
 418 1245 417 1247 416 1247 c 0
 414 1247 413 1244 412 1240 c 2
 277 641 l 1
 407 19 l 2
 408 14 408 12 410 12 c 0
EndSplineSet
EndChar

StartChar: lslash
Encoding: 251 322 239
Width: 363
VWidth: 0
Flags: HW
LayerCount: 2
Fore
SplineSet
247 0 m 2
 135 0 l 2
 120 0 110 11 110 54 c 2
 110 734 l 1
 1 706 l 2
 -13 702 -26 707 -26 750 c 2
 -26 811 l 2
 -26 854 -13 851 1 855 c 2
 110 883 l 1
 110 1402 l 2
 110 1445 120 1462 135 1462 c 2
 247 1462 l 2
 261 1462 272 1445 272 1402 c 2
 272 926 l 1
 378 954 l 2
 392 958 405 954 405 911 c 2
 405 849 l 2
 405 806 392 810 378 806 c 2
 272 778 l 1
 272 54 l 2
 272 11 261 0 247 0 c 2
EndSplineSet
EndChar

StartChar: m
Encoding: 77 109 240
Width: 1104
VWidth: 0
Flags: HW
LayerCount: 2
Fore
SplineSet
129 0 m 2
 115 0 104 25 104 68 c 2
 104 933 l 2
 104 976 114 1006 128 1006 c 2
 163 1006 l 2
 178 1006 191 988 199 946 c 1
 217 811 l 2
 219 803 221 799 225 799 c 0
 227 799 229 804 231 812 c 0
 271 975 347 1018 422 1018 c 0
 499 1018 564 966 600 828 c 0
 602 822 604 820 606 820 c 0
 609 820 612 822 613 828 c 0
 649 963 735 1018 801 1018 c 0
 920 1018 1013 956 1013 602 c 2
 1013 68 l 2
 1013 25 1003 0 988 0 c 2
 872 0 l 2
 857 0 847 25 847 68 c 2
 847 620 l 2
 847 830 820 882 760 882 c 0
 699 882 642 807 642 588 c 2
 642 68 l 2
 642 25 631 0 617 0 c 2
 502 0 l 2
 486 0 476 25 476 68 c 2
 476 607 l 2
 476 827 445 882 389 882 c 0
 305 882 271 744 271 577 c 2
 271 68 l 2
 271 25 260 0 246 0 c 2
 129 0 l 2
EndSplineSet
EndChar

StartChar: macron
Encoding: 110 175 241
Width: 890
VWidth: 0
Flags: HW
LayerCount: 2
Fore
SplineSet
274 707 m 2
 249 707 238 719 238 747 c 2
 238 778 l 2
 238 807 249 819 274 819 c 2
 632 819 l 2
 656 819 668 807 668 779 c 2
 668 748 l 2
 668 719 656 707 632 707 c 2
 274 707 l 2
EndSplineSet
EndChar

StartChar: minus
Encoding: 418 8722 242
Width: 1024
VWidth: 0
Flags: HW
LayerCount: 2
Fore
SplineSet
157 595 m 2
 124 595 103 614 103 650 c 2
 103 705 l 2
 103 743 124 762 157 762 c 2
 867 762 l 2
 899 762 920 743 920 706 c 2
 920 651 l 2
 920 614 899 595 867 595 c 2
 157 595 l 2
EndSplineSet
EndChar

StartChar: multiply
Encoding: 146 215 243
Width: 801
VWidth: 0
Flags: HW
LayerCount: 2
Fore
SplineSet
197 342 m 2
 147 393 l 2
 141 399 136 404 136 412 c 0
 136 420 141 431 157 447 c 2
 308 598 l 1
 157 750 l 2
 142 765 136 776 136 785 c 0
 136 793 142 799 148 805 c 2
 198 856 l 2
 204 862 209 866 217 866 c 0
 225 866 236 861 252 846 c 2
 404 694 l 1
 555 845 l 2
 571 861 582 866 590 866 c 0
 598 866 603 861 609 855 c 2
 660 805 l 2
 666 799 671 792 671 784 c 0
 671 776 666 765 651 750 c 2
 500 598 l 1
 651 447 l 2
 666 432 672 421 672 413 c 0
 672 405 667 399 661 393 c 2
 610 342 l 2
 604 336 598 331 590 331 c 0
 581 331 570 336 555 351 c 2
 404 503 l 1
 252 351 l 2
 237 336 226 331 218 331 c 0
 210 331 203 336 197 342 c 2
EndSplineSet
EndChar

StartChar: n
Encoding: 78 110 244
Width: 789
VWidth: 0
Flags: HW
LayerCount: 2
Fore
SplineSet
129 0 m 2
 115 0 104 6 104 49 c 2
 104 946 l 2
 104 989 114 1006 128 1006 c 2
 171 1006 l 2
 187 1006 200 1001 208 959 c 1
 228 833 l 2
 229 826 232 822 235 822 c 0
 238 822 240 827 241 832 c 0
 290 995 387 1018 467 1018 c 0
 606 1018 697 927 697 585 c 2
 697 49 l 2
 697 6 687 0 672 0 c 2
 544 0 l 2
 529 0 519 6 519 49 c 2
 519 607 l 2
 519 791 493 882 427 882 c 0
 345 882 283 761 283 600 c 2
 283 49 l 2
 283 6 272 0 258 0 c 2
 129 0 l 2
EndSplineSet
EndChar

StartChar: nine
Encoding: 25 57 248
Width: 866
VWidth: 0
Flags: HW
LayerCount: 2
Fore
SplineSet
408 -15 m 0
 334 -15 210 30 171 68 c 1
 160 77 157 115 157 121 c 2
 163 199 l 2
 166 240 175 239 187 231 c 1
 204 216 298 160 399 160 c 0
 523 160 563 269 563 527 c 2
 563 581 l 1
 518 553 467 527 411 527 c 0
 193 527 103 722 103 994 c 0
 103 1363 243 1462 433 1462 c 0
 654 1462 763 1284 763 749 c 0
 763 158 660 -15 408 -15 c 0
423 692 m 0
 463 692 516 707 564 745 c 1
 564 912 l 2
 564 1208 518 1292 429 1292 c 0
 345 1292 297 1215 297 982 c 0
 297 810 326 692 423 692 c 0
EndSplineSet
EndChar

StartChar: numbersign
Encoding: 3 35 250
Width: 731
VWidth: 0
Flags: HW
LayerCount: 2
Fore
SplineSet
140 -159 m 2
 134 -159 130 -141 132 -124 c 2
 170 347 l 1
 113 347 l 2
 98 347 89 358 89 397 c 2
 89 430 l 2
 89 469 96 480 111 480 c 2
 184 480 l 1
 213 844 l 1
 147 844 l 2
 133 844 123 855 123 894 c 2
 123 930 l 2
 123 966 132 980 146 980 c 2
 228 980 l 1
 273 1492 l 2
 275 1513 283 1527 289 1527 c 2
 366 1527 l 2
 372 1527 376 1509 375 1492 c 2
 330 980 l 1
 466 980 l 1
 512 1492 l 2
 513 1513 520 1527 528 1527 c 2
 602 1527 l 2
 608 1527 612 1509 610 1492 c 2
 565 980 l 1
 626 980 l 2
 640 980 648 966 648 930 c 2
 648 894 l 2
 648 855 641 844 627 844 c 2
 551 844 l 1
 522 480 l 1
 589 480 l 2
 605 480 614 469 614 430 c 2
 614 397 l 2
 614 358 606 347 591 347 c 2
 507 347 l 1
 469 -124 l 2
 467 -145 460 -159 453 -159 c 2
 378 -159 l 2
 373 -159 369 -141 370 -124 c 2
 408 347 l 1
 272 347 l 1
 234 -124 l 2
 232 -145 225 -159 218 -159 c 2
 140 -159 l 2
287 480 m 1
 423 480 l 1
 451 844 l 1
 315 844 l 1
 287 480 l 1
EndSplineSet
EndChar

StartChar: o
Encoding: 79 111 251
Width: 768
VWidth: 0
Flags: HW
LayerCount: 2
Fore
SplineSet
385 125 m 0
 461 125 513 175 513 506 c 0
 513 829 460 882 385 882 c 0
 309 882 256 829 256 506 c 0
 256 176 307 125 385 125 c 0
385 -11 m 0
 255 -11 81 23 81 506 c 0
 81 987 260 1018 385 1018 c 0
 510 1018 687 987 687 506 c 0
 687 23 514 -11 385 -11 c 0
EndSplineSet
EndChar

StartChar: oe
Encoding: 265 339 256
Width: 1090
VWidth: 0
Flags: HW
LayerCount: 2
Fore
SplineSet
1012 242 m 0
 1012 106 947 -11 794 -11 c 0
 699 -11 625 36 579 161 c 1
 531 32 456 -11 373 -11 c 0
 243 -11 81 22 81 506 c 0
 81 986 244 1018 369 1018 c 0
 446 1018 525 978 576 857 c 1
 625 968 694 1018 778 1018 c 0
 913 1018 1015 910 1020 550 c 0
 1020 537 1018 466 996 466 c 2
 666 466 l 2
 661 466 658 454 658 441 c 0
 659 240 703 125 795 125 c 0
 889 125 897 224 903 288 c 0
 905 302 911 310 920 310 c 2
 989 310 l 2
 1010 310 1012 287 1012 260 c 0
 1012 254 1012 248 1012 242 c 0
663 572 m 2
 885 572 l 2
 887 572 887 588 887 597 c 0
 882 774 850 883 776 883 c 0
 717 883 668 813 659 622 c 0
 659 611 659 572 663 572 c 2
367 125 m 0
 443 125 491 175 491 506 c 0
 491 829 442 882 367 882 c 0
 291 882 241 829 241 506 c 0
 241 176 289 125 367 125 c 0
EndSplineSet
EndChar

StartChar: ogonek
Encoding: 353 731 257
Width: 716
VWidth: 0
Flags: HW
LayerCount: 2
Fore
SplineSet
479 -352 m 0
 476 -352 430 -352 427 -352 c 0
 276 -349 206 -263 206 -184 c 0
 206 -46 300 25 433 35 c 1
 431 -2 l 1
 379 -13 349 -53 349 -128 c 0
 349 -198 373 -265 467 -265 c 1
 467 -265 495 -264 495 -275 c 2
 495 -335 l 2
 495 -345 492 -352 479 -352 c 0
EndSplineSet
EndChar

StartChar: one
Encoding: 17 49 261
Width: 539
VWidth: 0
Flags: HW
LayerCount: 2
Fore
SplineSet
216 0 m 2
 201 0 191 24 191 67 c 2
 191 1172 l 2
 191 1192 185 1203 178 1202 c 2
 178 1202 99 1182 98 1182 c 0
 84 1181 76 1191 76 1226 c 2
 76 1322 l 2
 76 1354 86 1364 100 1367 c 2
 364 1435 l 2
 367 1436 370 1436 373 1436 c 0
 387 1436 395 1425 395 1389 c 2
 395 67 l 2
 395 24 384 0 369 0 c 2
 216 0 l 2
EndSplineSet
EndChar

StartChar: oslash
Encoding: 179 248 262
Width: 768
VWidth: 0
Flags: HW
LayerCount: 2
Fore
SplineSet
177 -84 m 1
 178 -84 l 2
 182 -84 187 -77 191 -65 c 2
 228.611425638 27.2139777693 l 1
 279.037562082 -6.01894593665 335.241816023 -11 385 -11 c 0
 514 -11 687 23 687 506 c 0
 687 729.223925413 648.878972708 855.529984831 595.525689233 926.797632812 c 1
 647 1053 l 2
 650 1059 652 1065 652 1070 c 0
 652 1073 651 1075 650 1075 c 2
 605 1090 l 1
 604 1090 l 2
 601 1090 596 1082 590 1071 c 1
 550.025850468 972.865659281 l 1
 496.872703148 1012.73392162 436.519640677 1018 385 1018 c 0
 260 1018 81 987 81 506 c 0
 81 267.681942709 123.361261693 138.675417027 181.896772836 69.1290005664 c 1
 135 -46 l 2
 133 -53 131 -61 131 -65 c 0
 131 -67 131 -68 132 -68 c 2
 177 -84 l 1
503.52128274 701.225425666 m 1
 509.678295833 650.802328474 513 586.862108812 513 506 c 0
 513 175 461 125 385 125 c 0
 347.312300087 125 315.927985048 136.906393649 293.554292232 186.437935779 c 1
 503.52128274 701.225425666 l 1
481.362138659 804.300019522 m 1
 268.557341332 281.875934656 l 1
 260.387655922 336.416531647 256 409.20673639 256 506 c 0
 256 829 309 882 385 882 c 0
 424.905462086 882 458.582691302 866.995620813 481.362138659 804.300019522 c 1
EndSplineSet
EndChar

StartChar: p
Encoding: 80 112 264
Width: 780
VWidth: 0
Flags: HW
LayerCount: 2
Fore
SplineSet
127 -344 m 2
 112 -344 104 -318 104 -275 c 2
 104 937 l 2
 104 980 113 1007 127 1007 c 2
 153 1007 l 2
 167 1007 181 987 189 937 c 0
 191 923 212 812 212 800 c 1
 213 793 216 789 218 789 c 0
 221 789 222 792 224 798 c 0
 264 960 359 1017 439 1017 c 0
 568 1017 699 875 699 510 c 0
 699 125 586 -11 444 -11 c 0
 379 -11 313 39 278 138 c 0
 277 142 274 144 272 144 c 0
 268 144 266 140 266 131 c 2
 266 -275 l 2
 266 -318 256 -344 242 -344 c 2
 127 -344 l 2
399 125 m 0
 471 125 524 227 524 500 c 0
 524 743 473 882 398 882 c 0
 319 882 266 736 266 500 c 0
 266 254 321 125 399 125 c 0
EndSplineSet
EndChar

StartChar: paragraph
Encoding: 114 182 265
Width: 1239
VWidth: 0
Flags: HW
LayerCount: 2
Fore
SplineSet
643 -1 m 2
 603 -1 589 30 589 73 c 2
 589 788 l 1
 565 788 l 2
 399 788 189 876 189 1116 c 0
 189 1346 329 1438 674 1438 c 0
 810 1438 925 1423 971 1413 c 0
 1014 1404 1020 1378 1020 1335 c 2
 1020 73 l 2
 1020 30 1006 -1 967 -1 c 2
 931 -1 l 2
 892 -1 878 30 878 73 c 2
 878 767 l 2
 878 779 869 788 859 788 c 2
 738 788 l 1
 738 73 l 2
 738 30 724 -1 684 -1 c 2
 643 -1 l 2
EndSplineSet
EndChar

StartChar: parenleft
Encoding: 8 40 266
Width: 446
VWidth: 0
Flags: HW
LayerCount: 2
Fore
SplineSet
318 -143 m 0
 169 -89 104 298 104 698 c 0
 104 1099 169 1485 318 1540 c 0
 319 1540 319 1540 320 1540 c 0
 332 1540 344 1506 344 1470 c 2
 344 1399 l 2
 344 1330 336 1317 315 1286 c 0
 271 1220 240 1018 240 698 c 0
 240 379 270 178 316 112 c 0
 337 81 344 67 344 -2 c 2
 344 -73 l 2
 344 -109 332 -143 320 -143 c 0
 319 -143 319 -143 318 -143 c 0
EndSplineSet
EndChar

StartChar: parenright
Encoding: 9 41 267
Width: 450
VWidth: 0
Flags: HW
LayerCount: 2
Fore
SplineSet
129 -143 m 0
 128 -143 128 -143 127 -143 c 0
 115 -143 103 -109 103 -73 c 2
 103 -1 l 2
 103 68 111 82 132 112 c 0
 177 178 208 379 208 698 c 0
 208 1018 177 1220 132 1286 c 0
 112 1317 103 1331 103 1400 c 2
 103 1470 l 2
 103 1506 115 1540 127 1540 c 0
 128 1540 128 1540 129 1540 c 0
 279 1485 343 1098 343 698 c 0
 343 297 279 -89 129 -143 c 0
EndSplineSet
EndChar

StartChar: percent
Encoding: 5 37 268
Width: 1073
VWidth: 0
Flags: HW
LayerCount: 2
Fore
SplineSet
387 -73 m 2
 377 -73 369 -49 369 -23 c 0
 369 -16 369.918945312 -9.98828125 371 -3 c 2
 595 1415 l 2
 601.620117188 1456.90722656 616 1485 632 1485 c 2
 673 1485 l 2
 682 1485 689 1463 689 1438 c 0
 689 1430 688.252929688 1422.96484375 687 1415 c 2
 464 -3 l 2
 457.541992188 -44.931640625 444 -73 428 -73 c 2
 387 -73 l 2
226 785 m 0
 284 785 308 867 308 1051 c 0
 308 1239 284 1323 226 1323 c 0
 167 1323 143 1239 143 1051 c 0
 143 867 167 785 226 785 c 0
226 670 m 0
 111 670 46 778 46 1055 c 0
 46 1330 109 1438 226 1438 c 0
 341 1438 404 1330 404 1055 c 0
 404 778 339 670 226 670 c 0
849 115 m 0
 907 115 931 197 931 381 c 0
 931 569 907 653 849 653 c 0
 790 653 766 569 766 381 c 0
 766 197 791 115 849 115 c 0
849 0 m 0
 734 0 669 108 669 385 c 0
 669 660 732 768 849 768 c 0
 965 768 1028 660 1028 385 c 0
 1028 108 963 0 849 0 c 0
EndSplineSet
EndChar

StartChar: period
Encoding: 14 46 269
Width: 377
VWidth: 0
Flags: HW
LayerCount: 2
Fore
SplineSet
120 0 m 2
 106 0 94 8 94 51 c 2
 94 203 l 2
 94 246 106 253 120 253 c 2
 257 253 l 2
 272 253 284 246 284 203 c 2
 284 51 l 2
 284 8 272 0 257 0 c 2
 120 0 l 2
EndSplineSet
EndChar

StartChar: plus
Encoding: 11 43 270
Width: 801
VWidth: 0
Flags: HW
LayerCount: 2
Fore
SplineSet
369 271 m 2
 350 271 336 275 336 316 c 2
 336 523 l 2
 336 543 330 545 321 545 c 2
 142 545 l 2
 125 545 111 549 111 587 c 2
 111 620 l 2
 111 658 125 661 142 661 c 2
 321 661 l 2
 330 661 336 663 336 683 c 2
 336 881 l 2
 336 922 350 926 369 926 c 2
 441 926 l 2
 459 926 472 922 472 881 c 2
 472 683 l 2
 472 663 479 661 489 661 c 2
 665 661 l 2
 681 661 696 658 696 620 c 2
 696 587 l 2
 696 549 681 545 665 545 c 2
 489 545 l 2
 479 545 472 543 472 523 c 2
 472 316 l 2
 472 275 459 271 441 271 c 2
 369 271 l 2
EndSplineSet
EndChar

StartChar: plusminus
Encoding: 112 177 271
Width: 802
VWidth: 0
Flags: HW
LayerCount: 2
Fore
SplineSet
369 395 m 2
 350 395 336 399 336 440 c 2
 336 647 l 2
 336 667 330 669 321 669 c 2
 142 669 l 2
 125 669 111 673 111 710 c 2
 111 743 l 2
 111 782 125 785 142 785 c 2
 321 785 l 2
 330 785 336 787 336 807 c 2
 336 1004 l 2
 336 1045 350 1049 369 1049 c 2
 441 1049 l 2
 459 1049 472 1045 472 1004 c 2
 472 807 l 2
 472 787 479 785 489 785 c 2
 665 785 l 2
 681 785 696 782 696 743 c 2
 696 710 l 2
 696 673 681 669 665 669 c 2
 489 669 l 2
 479 669 472 667 472 647 c 2
 472 440 l 2
 472 399 459 395 441 395 c 2
 369 395 l 2
141 150 m 2
 124 150 110 154 110 192 c 2
 110 225 l 2
 110 263 124 266 141 266 c 2
 664 266 l 2
 680 266 695 263 695 225 c 2
 695 192 l 2
 695 154 680 150 664 150 c 2
 141 150 l 2
EndSplineSet
EndChar

StartChar: product
Encoding: 399 8719 272
Width: 947
VWidth: 0
Flags: HW
LayerCount: 2
Fore
SplineSet
142 0 m 2
 126 0 116 4 116 47 c 2
 116 1391 l 2
 116 1434 126 1438 142 1438 c 2
 807 1438 l 2
 822 1438 832 1434 832 1391 c 2
 832 47 l 2
 832 4 822 0 807 0 c 2
 660 0 l 2
 645 0 633 4 633 47 c 2
 633 1258 l 2
 633 1275 628 1280 622 1280 c 2
 325 1280 l 2
 319 1280 315 1275 315 1259 c 2
 315 47 l 2
 315 4 304 0 289 0 c 2
 142 0 l 2
EndSplineSet
EndChar

StartChar: q
Encoding: 81 113 273
Width: 769
VWidth: 0
Flags: HW
LayerCount: 2
Fore
SplineSet
529 -344 m 2
 515 -344 506 -335 506 -292 c 2
 505 131 l 2
 505 140 503 144 499 144 c 0
 497 144 494 142 493 138 c 0
 458 39 396 -11 330 -11 c 0
 189 -11 81 115 81 510 c 0
 81 888 212 1018 341 1018 c 0
 425 1018 507 953 547 790 c 0
 549 784 550 781 553 781 c 0
 555 781 558 785 559 792 c 1
 559 804 580 934 582 947 c 0
 591 997 605 1008 618 1008 c 2
 644 1008 l 2
 659 1008 667 990 667 947 c 2
 667 -292 l 2
 667 -335 659 -344 644 -344 c 2
 529 -344 l 2
376 125 m 0
 453 125 506 254 506 500 c 0
 506 736 456 882 377 882 c 0
 302 882 255 743 255 500 c 0
 255 227 304 125 376 125 c 0
EndSplineSet
EndChar

StartChar: question
Encoding: 31 63 274
Width: 772
VWidth: 0
Flags: HW
LayerCount: 2
Fore
SplineSet
271 520 m 1
 257 546 243 563 240 594 c 1
 234 611 242 632 250 641 c 1
 298 735 332 765 422 827 c 0
 505 883 548 969 548 1070 c 1
 544 1218 458 1293 362 1293 c 0
 275 1293 206 1264 141 1218 c 1
 125 1208 116 1221 108 1247 c 1
 101 1247 82 1318 82 1329 c 0
 82 1350 91 1370 106 1379 c 1
 170 1425 274 1465 365 1465 c 0
 538 1465 700 1366 708 1073 c 1
 708 876 567 748 444 674 c 0
 380 635 344 580 316 525 c 0
 313 521 302 509 290 509 c 0
 284 509 277 512 271 520 c 1
257 0 m 2
 229 0 209 24 209 65 c 2
 209 176 l 2
 209 217 229 241 257 241 c 2
 362 241 l 2
 390 241 410 217 410 176 c 2
 410 65 l 2
 410 24 390 0 362 0 c 2
 257 0 l 2
EndSplineSet
EndChar

StartChar: quotedbl
Encoding: 2 34 276
Width: 533
VWidth: 0
Flags: HW
LayerCount: 2
Fore
SplineSet
130 765 m 2
 116 765 109 795 107 835 c 2
 69 1364 l 2
 69 1368 69 1371 69 1375 c 0
 69 1410 80 1438 94 1438 c 2
 192 1438 l 2
 206 1438 216 1408 216 1373 c 0
 216 1370 216 1367 216 1364 c 2
 179 835 l 2
 176 795 171 765 156 765 c 2
 130 765 l 2
383 765 m 2
 368 765 362 795 360 835 c 2
 321 1364 l 2
 321 1367 321 1370 321 1373 c 0
 321 1409 332 1438 346 1438 c 2
 445 1438 l 2
 458 1438 468 1410 468 1376 c 0
 468 1372 468 1368 468 1364 c 2
 431 835 l 2
 429 795 424 765 409 765 c 2
 383 765 l 2
EndSplineSet
EndChar

StartChar: quotedblleft
Encoding: 385 8220 277
Width: 611
VWidth: 0
Flags: HW
LayerCount: 2
Fore
SplineSet
114 858 m 2
 100 858 88 879 88 922 c 2
 88 1116 l 2
 88 1353 182 1470 230 1493 c 0
 232 1494 233 1494 235 1494 c 0
 245 1494 255 1479 255 1448 c 2
 255 1431 l 2
 255 1377 252 1380 232 1356 c 0
 201 1318 185 1243 185 1193 c 0
 185 1177 186 1166 191 1166 c 2
 234 1166 l 2
 248 1166 255 1147 255 1109 c 2
 255 917 l 2
 255 874 249 858 234 858 c 2
 114 858 l 2
377 858 m 2
 363 858 351 879 351 922 c 2
 351 1116 l 2
 351 1353 445 1470 493 1493 c 0
 495 1494 496 1494 498 1494 c 0
 508 1494 518 1479 518 1448 c 2
 518 1431 l 2
 518 1377 515 1380 495 1356 c 0
 464 1318 448 1243 448 1193 c 0
 448 1177 449 1166 454 1166 c 2
 497 1166 l 2
 511 1166 518 1147 518 1109 c 2
 518 917 l 2
 518 874 512 858 497 858 c 2
 377 858 l 2
EndSplineSet
EndChar

StartChar: quotedblright
Encoding: 386 8221 278
Width: 608
VWidth: 0
Flags: HW
LayerCount: 2
Fore
SplineSet
114 851 m 0
 112 850 111 850 109 850 c 0
 99 850 89 865 89 896 c 2
 89 913 l 2
 89 967 93 964 112 988 c 0
 143 1026 159 1101 159 1151 c 0
 159 1167 159 1178 153 1178 c 2
 110 1178 l 2
 97 1178 89 1197 89 1235 c 2
 89 1427 l 2
 89 1470 95 1486 110 1486 c 2
 230 1486 l 2
 244 1486 256 1465 256 1422 c 2
 256 1228 l 2
 256 991 162 874 114 851 c 0
377 851 m 0
 375 850 374 850 372 850 c 0
 362 850 353 865 353 896 c 2
 353 913 l 2
 353 967 356 964 376 988 c 0
 406 1026 423 1101 423 1151 c 0
 423 1167 422 1178 417 1178 c 2
 374 1178 l 2
 360 1178 353 1197 353 1235 c 2
 353 1427 l 2
 353 1470 359 1486 374 1486 c 2
 493 1486 l 2
 508 1486 520 1465 520 1422 c 2
 520 1228 l 2
 520 991 425 874 377 851 c 0
EndSplineSet
EndChar

StartChar: quoteleft
Encoding: 382 8216 279
Width: 341
VWidth: 0
Flags: HW
LayerCount: 2
Fore
SplineSet
114 858 m 2
 100 858 88 879 88 922 c 2
 88 1116 l 2
 88 1353 182 1470 230 1493 c 0
 232 1494 233 1494 235 1494 c 0
 245 1494 255 1479 255 1448 c 2
 255 1431 l 2
 255 1377 252 1380 232 1356 c 0
 201 1318 185 1243 185 1193 c 0
 185 1177 186 1166 191 1166 c 2
 234 1166 l 2
 248 1166 255 1147 255 1109 c 2
 255 917 l 2
 255 874 249 858 234 858 c 2
 114 858 l 2
EndSplineSet
EndChar

StartChar: quoteright
Encoding: 383 8217 280
Width: 336
VWidth: 0
Flags: HW
LayerCount: 2
Fore
SplineSet
114 851 m 0
 112 850 111 850 109 850 c 0
 99 850 89 865 89 896 c 2
 89 913 l 2
 89 967 93 964 112 988 c 0
 143 1026 159 1101 159 1151 c 0
 159 1167 159 1178 153 1178 c 2
 110 1178 l 2
 97 1178 89 1197 89 1235 c 2
 89 1427 l 2
 89 1470 95 1486 110 1486 c 2
 230 1486 l 2
 244 1486 256 1465 256 1422 c 2
 256 1228 l 2
 256 991 162 874 114 851 c 0
EndSplineSet
EndChar

StartChar: quotesingle
Encoding: 7 39 281
Width: 363
VWidth: 0
Flags: HW
LayerCount: 2
Fore
SplineSet
169 765 m 2
 155 765 148 795 146 835 c 2
 108 1364 l 2
 108 1368 108 1371 108 1375 c 0
 108 1410 119 1438 133 1438 c 2
 231 1438 l 2
 245 1438 255 1408 255 1373 c 0
 255 1370 255 1367 255 1364 c 2
 218 835 l 2
 215 795 210 765 195 765 c 2
 169 765 l 2
EndSplineSet
EndChar

StartChar: r
Encoding: 82 114 282
Width: 496
VWidth: 0
Flags: HW
LayerCount: 2
Fore
SplineSet
129 0 m 2
 115 0 104 26 104 69 c 2
 104 929 l 2
 104 972 109 1006 123 1006 c 2
 161 1006 l 2
 177 1006 183 985 191 942 c 2
 214 806 l 2
 215 798 218 791 221 791 c 0
 224 791 226 799 227 806 c 0
 269 955 330 1014 386 1016 c 1
 402 1016 l 2
 438 1016 446 997 446 962 c 2
 446 862 l 2
 446 829 441 824 428 824 c 0
 427 824 385 822 375 818 c 1
 295 795 266 632 266 519 c 2
 266 69 l 2
 266 26 255 0 241 0 c 2
 129 0 l 2
EndSplineSet
EndChar

StartChar: registered
Encoding: 109 174 286
Width: 1443
VWidth: 0
Flags: HW
LayerCount: 2
Fore
SplineSet
520 356 m 2
 510 356 503 368 503 388 c 2
 503 1072 l 2
 503 1095 510 1105 520 1105 c 2
 724 1105 l 2
 848 1105 955 1096 955 894 c 0
 955 785 918 736 863 722 c 0
 862 722 860 718 863 717 c 0
 915 696 957 635 961 512 c 0
 962 492 964 389 964 382 c 0
 964 366 959 356 953 356 c 2
 880 356 l 2
 868 356 864 367 863 391 c 1
 863 447 850 596 843 608 c 1
 831 671 799 682 745 682 c 2
 612 682 l 2
 609 682 605 675 605 667 c 2
 605 388 l 2
 605 368 599 356 589 356 c 2
 520 356 l 2
612 771 m 2
 769 771 l 2
 832 771 856 809 856 892 c 0
 856 1001 811 1017 738 1017 c 2
 612 1017 l 2
 609 1017 605 1012 605 1004 c 2
 605 785 l 2
 605 778 608 771 612 771 c 2
724 93 m 0
 1098 93 1235 422 1235 717 c 0
 1235 1022 1098 1346 724 1346 c 0
 349 1346 213 1022 213 717 c 0
 213 422 349 93 724 93 c 0
721 -16 m 0
 295 -16 94 332 94 721 c 0
 94 1109 295 1458 721 1458 c 0
 1149 1458 1349 1109 1349 721 c 0
 1349 332 1149 -16 721 -16 c 0
EndSplineSet
EndChar

StartChar: ring
Encoding: 352 730 287
Width: 1268
VWidth: 0
Flags: HW
LayerCount: 2
Fore
SplineSet
651 1193 m 0
 708 1193 767 1227 767 1316 c 0
 767 1411 704 1438 651 1438 c 0
 594 1438 531 1411 532 1316 c 1
 531 1228 591 1193 651 1193 c 0
651 1120 m 0
 567 1120 444 1167 444 1316 c 0
 444 1469 559 1512 651 1512 c 0
 741 1512 855 1469 855 1316 c 0
 855 1167 732 1120 651 1120 c 0
EndSplineSet
EndChar

StartChar: s
Encoding: 83 115 288
Width: 596
VWidth: 0
Flags: HW
LayerCount: 2
Fore
SplineSet
289 -11 m 0
 197 -11 105 35 40 114 c 1
 99 229 l 1
 157 163 218 125 283 125 c 0
 364 125 399 192 399 261 c 0
 399 341 351 378 259 442 c 0
 151 517 76 583 76 747 c 0
 76 901 169 1018 311 1018 c 0
 401 1018 475 977 529 917 c 1
 467 798 l 1
 423 846 377 876 324 876 c 0
 259 876 225 823 225 759 c 0
 225 679 276 633 350 586 c 0
 457 518 547 437 547 260 c 0
 547 93 454 -11 289 -11 c 0
EndSplineSet
EndChar

StartChar: section
Encoding: 102 167 294
Width: 836
VWidth: 0
Flags: HW
LayerCount: 2
Fore
SplineSet
424 -15 m 0
 316 -15 213 12 121 86 c 0
 111 93 105 110 105 124 c 0
 105 129 120 178 120 178 c 2
 128 204 149 218 164 209 c 1
 252 144 324 115 440 115 c 0
 554 115 603 187 603 282 c 0
 603 379 541 419 416 451 c 0
 253 493 116 530 116 742 c 0
 116 833 150 904 200 949 c 1
 150 995 116 1059 116 1159 c 0
 116 1401 289 1452 418 1452 c 0
 527 1452 596 1430 676 1371 c 0
 685 1365 693 1348 693 1335 c 0
 693 1330 675 1277 675 1277 c 2
 668 1253 645 1247 631 1256 c 0
 575 1294 538 1319 437 1319 c 0
 296 1319 260 1262 260 1178 c 0
 260 1088 316 1061 443 1028 c 0
 617 984 742 952 742 713 c 0
 742 628 706 558 665 510 c 1
 708 462 742 397 742 295 c 0
 742 96 653 -15 424 -15 c 0
574 573 m 1
 593 584 625 660 625 705 c 0
 625 803 554 837 416 868 c 1
 367 876 329 883 291 898 c 1
 258 868 240 816 240 764 c 0
 240 682 322 648 443 610 c 1
 499 596 538 586 574 573 c 1
EndSplineSet
EndChar

StartChar: semicolon
Encoding: 27 59 295
Width: 356
VWidth: 0
Flags: HW
LayerCount: 2
Fore
SplineSet
120 -328 m 0
 118 -329 117 -329 115 -329 c 0
 105 -329 96 -314 96 -283 c 2
 96 -266 l 2
 96 -212 99 -214 119 -191 c 0
 150 -153 166 -77 166 -27 c 0
 166 -11 165 0 160 0 c 2
 117 0 l 2
 103 0 96 19 96 57 c 2
 96 248 l 2
 96 291 102 308 117 308 c 2
 237 308 l 2
 251 308 263 287 263 244 c 2
 263 50 l 2
 263 -188 168 -305 120 -328 c 0
125 690 m 2
 110 690 98 711 98 754 c 2
 98 958 l 2
 98 1001 110 1022 125 1022 c 2
 230 1022 l 2
 245 1022 256 1001 256 958 c 2
 256 754 l 2
 256 711 245 690 230 690 c 2
 125 690 l 2
EndSplineSet
EndChar

StartChar: seven
Encoding: 23 55 296
Width: 586
VWidth: 0
Flags: HW
LayerCount: 2
Fore
SplineSet
189 0 m 2
 176 0 165 18 165 50 c 0
 165 55 165.271484375 59.9619140625 166 66 c 2
 304 1210 l 6
 306 1226 300 1237 293 1237 c 6
 98 1237 l 2
 83 1237 72 1246 72 1283 c 2
 72 1394 l 2
 72 1429 83 1438 98 1438 c 2
 490 1438 l 6
 503 1438 514 1421 514 1389 c 4
 514 1384 514 1379 513 1373 c 6
 357 66 l 2
 352 24.1083984375 345 0 330 0 c 2
 189 0 l 2
EndSplineSet
EndChar

StartChar: six
Encoding: 22 54 297
Width: 844
VWidth: 0
Flags: HW
LayerCount: 2
Fore
SplineSet
104 687 m 0
 104 1241 210 1454 480 1454 c 0
 565 1454 667 1422 703 1391 c 0
 714 1382 719 1344 719 1340 c 0
 719 1337 713 1265 711 1263 c 1
 708 1234 702 1223 688 1232 c 0
 668 1245 606 1289 519 1289 c 0
 386 1289 303 1201 303 884 c 2
 303 859 l 1
 362 883 418 905 469 905 c 0
 695 905 777 703 777 441 c 0
 777 64 633 -15 442 -15 c 0
 211 -15 104 184 104 687 c 0
447 147 m 0
 535 147 585 206 585 456 c 0
 585 610 561 740 457 740 c 0
 416 740 362 725 302 696 c 1
 302 576 l 2
 302 248 346 147 447 147 c 0
EndSplineSet
EndChar

StartChar: slash
Encoding: 15 47 298
Width: 564
VWidth: 0
Flags: HW
LayerCount: 2
Fore
SplineSet
93 -205 m 2
 88 -205 84 -193 84 -179 c 0
 84 -176 85 -173 85 -170 c 2
 319 1612 l 2
 322 1633 330 1647 337 1647 c 2
 474 1647 l 2
 480 1647 484 1635 484 1622 c 0
 484 1619 484 1615 483 1612 c 2
 248 -171 l 2
 245 -192 239 -206 232 -206 c 2
 93 -205 l 2
EndSplineSet
EndChar

StartChar: sterling
Encoding: 98 163 300
Width: 963
VWidth: 0
Flags: HW
LayerCount: 2
Fore
SplineSet
636 1467 m 0
 755 1467 841 1431 876 1413 c 0
 904 1398 924 1389 924 1364 c 0
 924 1360 923 1356 922 1351 c 2
 907 1282 l 2
 900 1254 888 1247 861 1253 c 1
 808 1260 770 1303 646 1303 c 0
 448 1303 417 1220 417 918 c 2
 417 808 l 1
 701 808 l 2
 733 808 750 792 750 756 c 2
 750 719 l 2
 750 683 733 667 701 667 c 2
 415 667 l 1
 415 194 l 2
 415 156 417 148 449 148 c 2
 882 148 l 2
 911 148 924 138 924 103 c 2
 924 37 l 2
 924 7 911 0 882 0 c 2
 98 0 l 2
 58 0 49 16 49 51 c 2
 49 94 l 2
 49 130 58 148 98 148 c 2
 189 148 l 2
 216 148 219 152 219 171 c 2
 219 624 l 2
 219 651 212 667 189 667 c 2
 98 667 l 2
 66 667 49 683 49 719 c 2
 49 756 l 2
 49 792 66 808 98 808 c 2
 215 808 l 1
 215 838 214 923 214 958 c 0
 214 1227 251 1467 636 1467 c 0
EndSplineSet
EndChar

StartChar: t
Encoding: 84 116 301
Width: 522
VWidth: 0
Flags: HW
LayerCount: 2
Fore
SplineSet
361 -2 m 2
 243 -2 131 32 131 322 c 2
 131 835 l 2
 131 853 126 855 120 855 c 2
 58 855 l 2
 44 855 33 865 33 903 c 2
 33 957 l 2
 33 997 44 1006 58 1006 c 2
 120 1006 l 2
 126 1006 131 1013 131 1033 c 2
 149 1422 l 2
 151 1464 161 1475 175 1475 c 2
 275 1475 l 2
 290 1475 300 1465 300 1422 c 2
 300 1033 l 2
 300 1013 304 1006 312 1006 c 2
 440 1006 l 2
 455 1006 465 997 465 957 c 2
 465 903 l 2
 465 865 455 855 440 855 c 2
 312 855 l 2
 304 855 300 853 300 835 c 2
 300 319 l 2
 300 156 346 136 394 136 c 2
 465 136 l 2
 480 136 492 129 492 99 c 2
 492 39 l 2
 492 6 480 -2 463 -2 c 2
 361 -2 l 2
EndSplineSet
EndChar

StartChar: thorn
Encoding: 185 254 303
Width: 765
VWidth: 0
Flags: HW
LayerCount: 2
Fore
SplineSet
128 -374 m 2
 114 -374 104 -343 104 -300 c 2
 104 1355 l 2
 104 1398 114 1428 129 1428 c 2
 240 1428 l 2
 255 1428 265 1398 265 1355 c 2
 265 884 l 2
 265 873 268 869 270 869 c 0
 273 869 276 873 277 876 c 0
 316 975 380 1018 446 1018 c 0
 565 1018 685 894 685 500 c 0
 685 124 556 -11 433 -11 c 0
 372 -11 306 29 265 129 c 1
 265 -300 l 2
 265 -343 255 -374 240 -374 c 2
 128 -374 l 2
399 125 m 0
 474 125 518 244 518 511 c 0
 518 752 471 882 398 882 c 0
 322 882 265 735 265 511 c 0
 265 291 320 125 399 125 c 0
EndSplineSet
EndChar

StartChar: three
Encoding: 19 51 304
Width: 662
VWidth: 0
Flags: HW
LayerCount: 2
Fore
SplineSet
276 -15 m 0
 177 -15 111 4 73 35 c 0
 63 43 59 86 59 91 c 0
 59 97 63 169 66 169 c 1
 67 190 69 204 80 194 c 1
 102 181 154 146 251 146 c 0
 380 146 437 236 437 397 c 1
 436 549 378 646 262 648 c 0
 258 648 231 648 226 648 c 0
 202 648 198 657 198 684 c 2
 198 791 l 2
 198 804 202 815 226 815 c 0
 230 815 258 815 261 815 c 0
 378 818 427 910 427 1053 c 0
 427 1232 369 1292 267 1292 c 0
 166 1292 105 1261 78 1245 c 1
 69 1238 65 1245 64 1271 c 1
 61 1271 56 1340 56 1345 c 0
 56 1350 61 1394 71 1402 c 1
 119 1432 181 1454 293 1454 c 0
 467 1454 602 1353 602 1061 c 0
 602 883 539 764 405 730 c 1
 542 699 609 565 609 363 c 0
 609 71 446 -15 276 -15 c 0
EndSplineSet
EndChar

StartChar: tilde
Encoding: 354 732 305
Width: 799
VWidth: 0
Flags: HW
LayerCount: 2
Fore
SplineSet
482 878 m 0
 433 878 371 797 277 797 c 0
 213 797 182 851 158 890 c 1
 148 904 139 922 139 932 c 0
 139 953 159 970 177 970 c 0
 222 970 226 896 267 896 c 0
 320 896 395 977 473 977 c 0
 528 977 560 928 589 883 c 0
 599 868 608 851 608 840 c 0
 608 820 589 804 572 804 c 0
 527 804 521 878 482 878 c 0
EndSplineSet
EndChar

StartChar: two
Encoding: 18 50 306
Width: 727
VWidth: 0
Flags: HW
LayerCount: 2
Fore
SplineSet
611 1 m 2
 111 1 l 2
 94 1 84 23 84 70 c 0
 84 76 85 123 85 130 c 0
 117 652 498 844 498 1107 c 0
 498 1235 422 1290 338 1290 c 0
 229 1290 162 1245 119 1227 c 1
 105 1214 99 1221 98 1240 c 1
 88 1283 80 1325 80 1334 c 0
 80 1360 83 1374 89 1383 c 1
 152 1426 249 1454 342 1454 c 0
 496 1454 668 1399 668 1140 c 0
 668 817 357 684 265 206 c 0
 264 203 264 199 264 194 c 0
 264 175 269 146 278 146 c 2
 611 146 l 2
 622 146 629 135 629 96 c 2
 629 48 l 2
 629 10 623 1 611 1 c 2
EndSplineSet
EndChar

StartChar: u
Encoding: 85 117 307
Width: 755
VWidth: 0
Flags: HW
LayerCount: 2
Fore
SplineSet
326 -11 m 0
 200 -11 91 57 91 372 c 2
 91 957 l 2
 91 1000 102 1006 117 1006 c 2
 235 1006 l 2
 249 1006 260 1000 260 957 c 2
 260 345 l 2
 260 181 295 125 362 125 c 0
 443 125 492 257 492 390 c 2
 492 957 l 2
 492 1000 503 1006 518 1006 c 2
 630 1006 l 2
 645 1006 656 1000 656 957 c 2
 656 61 l 2
 656 18 646 0 631 0 c 2
 605 0 l 2
 589 0 576 5 569 48 c 2
 546 190 l 2
 544 198 541 203 539 203 c 0
 536 203 534 198 532 191 c 0
 497 45 406 -11 326 -11 c 0
EndSplineSet
EndChar

StartChar: underscore
Encoding: 63 95 315
Width: 949
VWidth: 0
Flags: HW
LayerCount: 2
Fore
SplineSet
122 -126 m 2
 89 -126 72 -113 72 -76 c 2
 72 -29 l 2
 72 9 89 21 122 21 c 2
 827 21 l 2
 859 21 876 9 876 -28 c 2
 876 -76 l 2
 876 -113 859 -126 827 -126 c 2
 122 -126 l 2
EndSplineSet
EndChar

StartChar: uni00AD
Encoding: 108 173 316
Width: 540
VWidth: 0
Flags: HW
LayerCount: 2
Fore
SplineSet
98 590 m 2
 85 590 75 590 75 615 c 2
 75 623 l 2
 75 650 85 650 98 650 c 2
 462 650 l 2
 475 650 485 650 485 625 c 2
 485 617 l 2
 485 590 475 590 462 590 c 2
 98 590 l 2
EndSplineSet
EndChar

StartChar: uni0237
Encoding: 347 567 357
Width: 404
VWidth: 0
Flags: HW
LayerCount: 2
Fore
SplineSet
34 -335 m 2
 19 -335 9 -311 9 -277 c 2
 9 -216 l 2
 9 -185 17 -165 33 -165 c 2
 72 -165 l 2
 117 -165 146 -144 146 -6 c 2
 146 940 l 2
 146 983 156 1006 171 1006 c 2
 282 1006 l 2
 298 1006 307 983 307 940 c 2
 307 -3 l 2
 307 -307 222 -335 118 -335 c 2
 34 -335 l 2
EndSplineSet
EndChar

StartChar: uni0311
Encoding: 65540 785 358
Width: 1504
VWidth: 0
Flags: HW
LayerCount: 2
Fore
SplineSet
427 1295 m 1
 427 1432 524 1490 621 1490 c 0
 717 1490 812 1432 813 1295 c 1
 726 1295 l 1
 726 1368 672 1395 618 1395 c 0
 564 1395 511 1369 511 1295 c 1
 427 1295 l 1
EndSplineSet
EndChar

StartChar: uniFB00
Encoding: 409 64256 373
Width: 970
VWidth: 0
Flags: HW
LayerCount: 2
Fore
SplineSet
637 0 m 2
 623 0 611 18 611 61 c 2
 611 825 l 2
 611 845 611 857 604 857 c 2
 302 857 l 2
 296 857 294 845 294 825 c 2
 294 61 l 2
 294 18 282 0 268 0 c 2
 152 0 l 2
 138 0 126 18 126 61 c 2
 126 825 l 2
 126 845 126 857 119 857 c 2
 67 857 l 2
 52 857 44 863 44 898 c 2
 44 959 l 2
 44 994 52 1006 67 1006 c 2
 119 1006 l 2
 126 1006 126 1019 126 1041 c 0
 126 1394 211 1459 347 1459 c 0
 377 1459 430 1456 444 1453 c 0
 455 1451 467 1445 467 1417 c 2
 467 1352 l 2
 467 1316 466 1307 454 1307 c 2
 391 1307 l 2
 322 1307 294 1261 294 1100 c 2
 294 1012 l 2
 294 1009 296 1006 297 1006 c 2
 604 1006 l 2
 611 1006 611 1019 611 1041 c 0
 611 1394 696 1459 832 1459 c 0
 862 1459 915 1456 929 1453 c 0
 940 1451 952 1445 952 1417 c 2
 952 1352 l 2
 952 1316 951 1307 939 1307 c 2
 876 1307 l 2
 807 1307 779 1261 779 1100 c 2
 779 1012 l 2
 779 1009 781 1006 782 1006 c 2
 923 1006 l 2
 937 1006 945 998 945 964 c 2
 945 898 l 2
 945 864 937 857 923 857 c 2
 787 857 l 2
 781 857 779 845 779 825 c 2
 779 61 l 2
 779 18 767 0 753 0 c 2
 637 0 l 2
EndSplineSet
EndChar

StartChar: uniFB01
Encoding: 410 64257 374
Width: 848
VWidth: 0
Flags: HW
LayerCount: 2
Fore
SplineSet
614 1161 m 2
 599 1161 589 1172 589 1215 c 2
 589 1344 l 2
 589 1387 599 1397 614 1397 c 2
 733 1397 l 2
 748 1397 758 1387 758 1344 c 2
 758 1215 l 2
 758 1172 748 1161 733 1161 c 2
 614 1161 l 2
618 0 m 2
 603 0 593 24 593 67 c 2
 593 857 l 1
 302 857 l 2
 296 857 294 845 294 825 c 2
 294 61 l 2
 294 18 282 0 268 0 c 2
 152 0 l 2
 138 0 126 18 126 61 c 2
 126 825 l 2
 126 845 126 857 119 857 c 2
 67 857 l 2
 52 857 44 863 44 898 c 2
 44 959 l 2
 44 994 52 1006 67 1006 c 2
 119 1006 l 2
 126 1006 126 1019 126 1041 c 0
 126 1394 211 1459 347 1459 c 0
 377 1459 430 1456 444 1453 c 0
 455 1451 467 1445 467 1417 c 2
 467 1352 l 2
 467 1316 466 1307 454 1307 c 2
 391 1307 l 2
 322 1307 294 1261 294 1100 c 2
 294 1012 l 2
 294 1009 296 1006 297 1006 c 2
 730 1006 l 2
 744 1006 754 983 754 940 c 2
 754 67 l 2
 754 24 744 0 730 0 c 2
 618 0 l 2
EndSplineSet
EndChar

StartChar: v
Encoding: 86 118 379
Width: 663
VWidth: 0
Flags: HW
LayerCount: 2
Fore
SplineSet
275 0 m 2
 260 0 246 27 238 68 c 2
 57 942 l 2
 54.931640625 951.98828125 55 961 55 970 c 0
 55 992 60 1006 70 1006 c 2
 192 1006 l 6
 208 1006 219.697265625 987.11328125 226 946 c 6
 340 248 l 2
 341.139648438 241.0234375 343 238 345 238 c 0
 347 238 348 241 349 248 c 2
 446 946 l 2
 451.83984375 988.021484375 466 1006 482 1006 c 2
 594 1006 l 2
 603 1006 609 993 609 972 c 0
 609 964 607.129882812 953.974609375 605 943 c 2
 435 67 l 2
 427 27 413 0 397 0 c 2
 275 0 l 2
EndSplineSet
EndChar

StartChar: w
Encoding: 87 119 380
Width: 922
VWidth: 0
Flags: HW
LayerCount: 2
Fore
SplineSet
232 0 m 2
 217 0 203 15 197 57 c 2
 59 941 l 2
 58 950 57 959 57 967 c 0
 57 991 63 1006 74 1006 c 2
 173 1006 l 2
 189 1006 199.38671875 988.051757812 205 944 c 2
 297 222 l 2
 297.875976562 215.98046875 300 213 300 213 c 1
 302 213 304 216 304 221 c 2
 398 945 l 2
 403 989 416 1006 431 1006 c 2
 521 1006 l 2
 535 1006 546.6015625 987.08203125 552 945 c 2
 645 220 l 2
 645 214 647 212 649 212 c 0
 651 212 651.456054688 216.037109375 652 220 c 2
 739 944 l 2
 744.40234375 988.953125 756 1006 772 1006 c 2
 849 1006 l 2
 859 1006 865 993 865 970 c 0
 865 961 864 952 862 942 c 2
 738 57 l 2
 731 14 717 0 702 0 c 2
 597 0 l 2
 582 0 568.120117188 16.017578125 562 59 c 2
 474 677 l 2
 474 682 473 684 471 684 c 0
 470 684 467 681 466 677 c 2
 376 59 l 2
 369.600585938 15.0556640625 355 0 340 0 c 2
 232 0 l 2
EndSplineSet
EndChar

StartChar: x
Encoding: 88 120 385
Width: 677
VWidth: 0
Flags: HW
LayerCount: 2
Fore
SplineSet
59 0 m 2
 54 0 51 13 51 26 c 0
 51 33 52 40 54 46 c 2
 237 464 l 2
 239 469 240 474 240 481 c 0
 240 488 239 495 238 500 c 2
 50 958 l 2
 48 963 46 971 46 979 c 0
 46 993 50 1006 56 1006 c 2
 191 1006 l 2
 207 1006 222 986 234 956 c 2
 334 699 l 2
 336 693 339 691 341 691 c 0
 344 691 347 693 349 698 c 2
 445 958 l 2
 456.0078125 987.813476562 473 1006 489 1006 c 2
 602 1006 l 2
 608 1006 611 993 611 981 c 0
 611 973 610 966 607 960 c 2
 434 567 l 2
 431 562 429 557 429 549 c 0
 429 543 431 535 433 530 c 2
 635 48 l 2
 637 43 638 35 638 27 c 0
 638 13 635 0 629 0 c 2
 493 0 l 2
 476 0 459 20 447 50 c 2
 348 318 l 2
 346 324 343 328 339 328 c 0
 337 328 331.765625 326.303710938 329 319 c 2
 226 47 l 2
 214.745117188 17.279296875 196 0 181 0 c 2
 59 0 l 2
EndSplineSet
EndChar

StartChar: y
Encoding: 89 121 386
Width: 662
VWidth: 0
Flags: HW
LayerCount: 2
Fore
SplineSet
223 -122 m 0
 251 -122 280 -76 280 22 c 0
 280 53 268 95 260 133 c 1
 64 948 l 2
 63 955 62 963 62 970 c 0
 62 993 69 1006 77 1006 c 2
 198 1006 l 2
 214 1006 228 1000 235 958 c 2
 365 270 l 2
 367 264 368 258 370 258 c 0
 372 258 374 262 374 269 c 1
 476 955 l 2
 482 998 494 1006 510 1006 c 2
 594 1006 l 2
 604 1006 611 993 611 967 c 0
 611 960 610 951 609 944 c 2
 431 17 l 1
 389 -215 343 -263 247 -265 c 0
 244 -265 240 -265 237 -265 c 0
 197 -265 148 -253 127 -222 c 1
 120 -214 119 -196 119 -176 c 0
 119 -112 135 -102 143 -102 c 0
 150 -102 205 -122 223 -122 c 0
EndSplineSet
EndChar

StartChar: yen
Encoding: 100 165 390
Width: 732
VWidth: 0
Flags: HW
LayerCount: 2
Fore
SplineSet
295 0 m 2
 280 0 270 8 270 51 c 2
 270 329 l 1
 118 329 l 2
 103 329 93 333 93 369 c 2
 93 439 l 2
 93 475 103 480 118 480 c 2
 260 480 l 1
 247 570 l 1
 118 570 l 2
 103 570 93 575 93 611 c 2
 93 681 l 2
 93 717 103 721 118 721 c 2
 212 721 l 1
 39 1378 l 2
 35 1390 34 1398 34 1407 c 0
 34 1424 40 1438 50 1438 c 2
 185 1438 l 2
 201 1438 220 1420 227 1385 c 1
 374 751 l 1
 388 751 l 1
 532 1384 l 2
 539 1417 557 1438 572 1438 c 2
 684 1438 l 2
 694 1438 700 1423 700 1406 c 0
 700 1397 699 1389 696 1378 c 2
 525 721 l 1
 618 721 l 2
 632 721 642 717 642 681 c 2
 642 611 l 2
 642 575 632 570 618 570 c 2
 491 570 l 1
 478 480 l 1
 613 480 l 2
 627 480 637 475 637 439 c 2
 637 369 l 2
 637 333 627 329 613 329 c 2
 468 329 l 1
 468 51 l 2
 468 8 457 0 443 0 c 2
 295 0 l 2
EndSplineSet
EndChar

StartChar: z
Encoding: 90 122 392
Width: 580
VWidth: 0
Flags: HW
LayerCount: 2
Fore
SplineSet
100 0 m 2
 93 0 84 8 84 25 c 2
 84 139 l 2
 84 162 89 178 97 199 c 2
 329 852 l 1
 97 852 l 1
 91 850 86 858 86 878 c 2
 86 979 l 2
 86 997 91 1006 97 1006 c 2
 493 1006 l 2
 500 1006 508 998 508 979 c 2
 508 851 l 2
 508 828 504 810 498 796 c 1
 273 153 l 1
 506 153 l 1
 512 155 519 145 519 127 c 2
 519 25 l 2
 519 8 512 0 506 0 c 2
 100 0 l 2
EndSplineSet
EndChar

StartChar: zero
Encoding: 16 48 396
Width: 891
VWidth: 0
Flags: HW
LayerCount: 2
Fore
SplineSet
445 145 m 0
 559 145 598 306 598 724 c 0
 598 1132 559 1294 443 1294 c 0
 326 1294 290 1131 290 724 c 0
 290 308 330 145 445 145 c 0
444 -18 m 0
 264 -18 103 130 103 724 c 0
 103 1342 264 1456 443 1456 c 0
 623 1456 786 1345 786 724 c 0
 786 130 624 -18 444 -18 c 0
EndSplineSet
EndChar

StartChar: germandbls
Encoding: 154 223 397
Width: 913
VWidth: 0
Flags: HW
LayerCount: 2
Back
SplineSet
616.5 0 m 6
 766 0 l 6
 782 0 793 3 793 44 c 6
 793 1393 l 6
 793 1435 782 1438 766 1438 c 6
 400 1438 l 6
 237 1438 115 1340 115 1041 c 4
 115 930 138 837 204 782 c 4
 208 778 213 773 213 770 c 4
 213 765 207 761 203 757 c 4
 120 698 78 590 78 424 c 4
 78 96 217 0 419 0 c 6
 474.5 0 l 5
 474.5 150 l 5
 455 150 l 6
 337 150 270 257 270 425 c 4
 270 576 333 684 423 684 c 6
 468.5 684 l 5
 468.5 833 l 5
 416 833 l 6
 344 833 295 910 295 1035 c 4
 295 1203 359 1282 454 1282 c 6
 582 1282 l 6
 590 1282 596 1279.99609375 596 1260 c 6
 596 50 l 6
 596 12 608.5 0 616.5 0 c 6
EndSplineSet
Fore
SplineSet
290 0 m 2
 159 0 l 2
 143 0 132 3 132 44 c 2
 132 1042 l 2
 132 1220 196 1438 477 1438 c 0
 640 1438 762 1330 762 1061 c 0
 762 950 759 857 663 802 c 1
 651 790 653 788 664 777 c 1
 757 738 812 600 812 434 c 0
 812 133 677 0 432 0 c 1
 432 150 l 1
 567 150 637 253 637 435 c 0
 637 619 570 704 438 704 c 1
 438 853 l 1
 557 853 599 924 599 1055 c 0
 599 1223 562 1282 467 1282 c 0
 321.52238806 1282 310.665849855 1158.95923368 310.665849855 1081.5915455 c 0
 310.665849855 1068.01826687 311 1055.85074627 311 1046 c 2
 311 50 l 2
 311 12 298 0 290 0 c 2
EndSplineSet
EndChar

StartChar: onequarter
Encoding: 119 188 398
Width: 1807
VWidth: 144
Flags: H
LayerCount: 2
Fore
SplineSet
1550 287 m 2
 1531 287 1520 302 1520 336 c 2
 1520 516 l 1
 1202 516 l 2
 1180 516 1162 533 1162 559 c 0
 1162 562 1162 566 1163 570 c 2
 1278 1384 l 1
 1284 1418 1288 1438 1308 1438 c 2
 1374 1438 l 2
 1392 1438 1402 1421 1402 1398 c 0
 1402 1394 1402 1389 1401 1384 c 2
 1322 679 l 2
 1321 673 1326 656 1337 656 c 2
 1520 656 l 1
 1520 1390 l 2
 1520 1424 1531 1438 1550 1438 c 2
 1627 1438 l 2
 1646 1438 1657 1424 1657 1390 c 2
 1657 656 l 1
 1761 656 l 2
 1785 656 1796 642 1796 611 c 2
 1796 561 l 2
 1796 530 1785 516 1761 516 c 2
 1657 516 l 1
 1657 336 l 2
 1657 302 1646 287 1627 287 c 2
 1550 287 l 2
727 124 m 2
 724 124 721 134 721 144 c 0
 721 146 722 148 722 150 c 2
 963 1579 l 2
 965 1595 972 1606 978 1606 c 2
 1049 1606 l 2
 1053 1606 1055 1597 1055 1588 c 0
 1055 1585 1056 1582 1055 1579 c 2
 814 150 l 2
 812 134 805 123 799 123 c 2
 727 124 l 2
379 288 m 2
 367 288 359 308 359 342 c 2
 359 1226 l 2
 359 1242 355 1251 349 1250 c 2
 349 1250 286 1234 285 1234 c 0
 274 1233 267 1241 267 1269 c 2
 267 1346 l 2
 267 1372 275 1380 286 1382 c 2
 498 1436 l 2
 501 1437 503 1437 505 1437 c 0
 516 1437 522 1428 522 1399 c 2
 522 342 l 2
 522 308 514 288 502 288 c 2
 379 288 l 2
EndSplineSet
EndChar

StartChar: onehalf
Encoding: 120 189 399
Width: 1653
VWidth: 144
Flags: H
LayerCount: 2
Fore
SplineSet
358 289 m 2
 346 289 338 309 338 343 c 2
 338 1227 l 2
 338 1243 334 1252 328 1251 c 2
 328 1251 265 1235 264 1235 c 0
 253 1234 246 1242 246 1270 c 2
 246 1347 l 2
 246 1373 254 1381 265 1383 c 2
 476 1437 l 2
 479 1438 482 1438 484 1438 c 0
 495 1438 501 1429 501 1400 c 2
 501 343 l 2
 501 309 492 289 480 289 c 2
 358 289 l 2
685 125 m 2
 682 125 679 135 679 145 c 0
 679 147 680 149 680 151 c 2
 921 1580 l 2
 923 1596 930 1607 936 1607 c 2
 1007 1607 l 2
 1011 1607 1013 1598 1013 1589 c 0
 1013 1586 1013 1583 1012 1580 c 2
 772 151 l 2
 770 135 763 124 757 124 c 2
 685 125 l 2
1560 290 m 2
 1160 290 l 2
 1146 290 1139 307 1139 345 c 0
 1139 350 1140 387 1140 393 c 0
 1166 811 1450 965 1450 1175 c 0
 1450 1277 1389 1321 1322 1321 c 0
 1235 1321 1201 1285 1167 1271 c 1
 1156 1261 1151 1266 1150 1281 c 1
 1142 1315 1136 1349 1136 1356 c 0
 1136 1377 1138 1388 1143 1395 c 1
 1193 1429 1271 1452 1345 1452 c 0
 1468 1452 1606 1408 1606 1201 c 0
 1606 943 1373 836 1299 454 c 0
 1298 452 1298 449 1298 445 c 0
 1298 430 1302 406 1309 406 c 2
 1560 406 l 2
 1569 406 1575 397 1575 366 c 2
 1575 327 l 2
 1575 297 1570 290 1560 290 c 2
EndSplineSet
EndChar

StartChar: threequarters
Encoding: 121 190 400
Width: 1916
VWidth: 144
Flags: H
LayerCount: 2
Fore
SplineSet
1658 287 m 2
 1639 287 1629 302 1629 336 c 2
 1629 516 l 1
 1310 516 l 2
 1288 516 1271 533 1271 559 c 0
 1271 562 1271 566 1272 570 c 2
 1386 1384 l 1
 1392 1418 1397 1438 1417 1438 c 2
 1482 1438 l 2
 1500 1438 1511 1421 1511 1398 c 0
 1511 1394 1510 1389 1509 1384 c 2
 1431 679 l 2
 1430 673 1434 656 1445 656 c 2
 1629 656 l 1
 1629 1390 l 2
 1629 1424 1639 1438 1658 1438 c 2
 1736 1438 l 2
 1755 1438 1765 1424 1765 1390 c 2
 1765 656 l 1
 1869 656 l 2
 1893 656 1905 642 1905 611 c 2
 1905 561 l 2
 1905 530 1893 516 1869 516 c 2
 1765 516 l 1
 1765 336 l 2
 1765 302 1755 287 1736 287 c 2
 1658 287 l 2
851 124 m 2
 848 124 845 134 845 144 c 0
 845 146 845 148 845 150 c 2
 1087 1579 l 2
 1089 1595 1095 1606 1101 1606 c 2
 1173 1606 l 2
 1177 1606 1179 1597 1179 1588 c 0
 1179 1585 1179 1582 1178 1579 c 2
 937 150 l 2
 935 134 929 123 923 123 c 2
 851 124 l 2
437 276 m 0
 358 276 305 291 275 316 c 0
 267 322 264 357 264 361 c 0
 264 366 267 423 269 423 c 1
 270 440 272 451 281 443 c 1
 299 433 339 405 417 405 c 0
 520 405 566 477 566 606 c 1
 565 728 519 804 426 806 c 0
 423 806 401 806 397 806 c 0
 378 806 375 813 375 835 c 2
 375 921 l 2
 375 931 378 940 397 940 c 0
 400 940 423 940 425 940 c 0
 519 942 558 1016 558 1130 c 0
 558 1273 512 1322 430 1322 c 0
 349 1322 301 1297 279 1284 c 1
 272 1278 269 1284 268 1305 c 1
 266 1305 261 1360 261 1364 c 0
 261 1368 265 1404 273 1410 c 0
 311 1434 361 1451 451 1451 c 0
 590 1451 698 1371 698 1137 c 0
 698 995 648 899 541 872 c 1
 651 847 704 740 704 578 c 0
 704 344 573 276 437 276 c 0
EndSplineSet
EndChar

StartChar: degree
Encoding: 111 176 401
Width: 1268
VWidth: 0
Flags: HW
LayerCount: 2
Fore
SplineSet
651 1318 m 0
 708 1318 767 1352 767 1441 c 0
 767 1536 704 1563 651 1563 c 0
 594 1563 531 1536 532 1441 c 1
 531 1353 591 1318 651 1318 c 0
651 1245 m 0
 567 1245 444 1292 444 1441 c 0
 444 1594 559 1637 651 1637 c 0
 741 1637 855 1594 855 1441 c 0
 855 1292 732 1245 651 1245 c 0
EndSplineSet
EndChar

StartChar: ordfeminine
Encoding: 105 170 402
Width: 650
VWidth: 100
Flags: H
LayerCount: 2
Fore
SplineSet
300 615 m 0
 195 615 134 683 134 815 c 0
 134 1124 430 1089 449 1116 c 1
 449 1159 l 2
 449 1265 432 1330 362 1330 c 0
 303 1330 279 1290 261 1224 c 1
 255 1206 249 1203 242 1204 c 1
 236 1206 158 1226 157 1231 c 1
 151 1234 150 1261 155 1279 c 0
 181 1378 240 1438 370 1438 c 0
 500 1438 579 1359 579 1108 c 2
 579 664 l 2
 579 636 572 624 562 624 c 2
 537 624 l 2
 527 624 518 636 511 659 c 1
 508 676 482 747 480 764 c 1
 478 769 475 769 474 764 c 0
 447 672 400 615 300 615 c 0
328 717 m 0
 406 717 452 837 452 967 c 0
 452 978 452 1028 445 1028 c 0
 444 1028 423 1024 421 1023 c 0
 305 994 254 928 254 825 c 0
 254 758 276 717 328 717 c 0
EndSplineSet
EndChar

StartChar: ordmasculine
Encoding: 117 186 403
Width: 691
VWidth: 100
Flags: H
LayerCount: 2
Fore
SplineSet
385 724 m 0
 446 724 487 764 487 1029 c 0
 487 1287 445 1329 385 1329 c 0
 324 1329 282 1287 282 1029 c 0
 282 765 323 724 385 724 c 0
385 615 m 0
 281 615 142 643 142 1029 c 0
 142 1414 285 1438 385 1438 c 0
 485 1438 626 1414 626 1029 c 0
 626 643 488 615 385 615 c 0
EndSplineSet
EndChar

StartChar: divide
Encoding: 178 247 404
Width: 867
VWidth: 0
Flags: HW
LayerCount: 2
Fore
SplineSet
772 638 m 2
 772 623 757 612 714 612 c 2
 151 612 l 2
 108 612 95 623 95 638 c 2
 95 750 l 2
 95 764 108 774 151 774 c 2
 714 774 l 2
 757 774 772 764 772 750 c 2
 772 638 l 2
378 941 m 2
 363 941 353 952 353 995 c 2
 353 1124 l 2
 353 1167 363 1177 378 1177 c 2
 497 1177 l 2
 512 1177 522 1167 522 1124 c 2
 522 995 l 2
 522 952 512 941 497 941 c 2
 378 941 l 2
378 195 m 2
 363 195 353 206 353 249 c 2
 353 378 l 2
 353 421 363 431 378 431 c 2
 497 431 l 2
 512 431 522 421 522 378 c 2
 522 249 l 2
 522 206 512 195 497 195 c 2
 378 195 l 2
EndSplineSet
EndChar

StartChar: trademark
Encoding: 397 8482 405
Width: 1563
VWidth: 143
Flags: H
LayerCount: 2
Fore
SplineSet
730 288 m 2
 719 288 711 296 711 327 c 0
 711 328 711 330 711 331 c 2
 747 1393 l 2
 748 1427 755 1437 767 1438 c 1
 894 1438 l 1
 907 1437 920 1434 926 1401 c 2
 1061 724 l 2
 1063 717 1069 717 1070 724 c 2
 1206 1398 l 2
 1212 1430 1224 1437 1237 1438 c 1
 1365 1438 l 1
 1376 1437 1384 1427 1384 1393 c 1
 1422 331 l 2
 1422 329 1422 327 1422 326 c 0
 1422 295 1414 288 1402 288 c 2
 1314 288 l 2
 1302 288 1294 297 1293 331 c 2
 1268 1121 l 2
 1268 1127 1264 1129 1262 1124 c 1
 1117 326 l 2
 1111 296 1101 288 1090 288 c 0
 1088 288 1040 288 1038 288 c 0
 1028 288 1016 296 1010 326 c 2
 869 1120 l 2
 868 1125 865 1122 865 1117 c 2
 839 331 l 1
 839 297 832 288 821 288 c 2
 730 288 l 2
311 288 m 2
 300 288 291 292 291 326 c 2
 291 1289 l 2
 291 1305 288 1309 282 1309 c 2
 143 1309 l 2
 130 1309 122 1310 122 1340 c 2
 122 1403 l 2
 122 1434 130 1438 143 1438 c 2
 595 1438 l 2
 607 1438 615 1434 615 1403 c 2
 615 1340 l 2
 615 1310 607 1309 595 1309 c 2
 458 1309 l 2
 452 1309 450 1305 450 1289 c 2
 450 326 l 2
 450 292 441 288 429 288 c 2
 311 288 l 2
EndSplineSet
EndChar

StartChar: quotesinglbase
Encoding: 384 8218 406
Width: 292
VWidth: 0
Flags: HW
LayerCount: 2
Fore
SplineSet
130 -457 m 2
 116 -457 109 -427 107 -387 c 2
 69 142 l 2
 69 146 69 150 69 154 c 0
 69 189 80 216 94 216 c 2
 192 216 l 2
 206 216 216 186 216 151 c 0
 216 148 216 145 216 142 c 2
 179 -387 l 2
 176 -427 171 -457 156 -457 c 2
 130 -457 l 2
EndSplineSet
EndChar

StartChar: quotedblbase
Encoding: 387 8222 407
Width: 533
VWidth: 0
Flags: HW
LayerCount: 2
Fore
SplineSet
130 -457 m 2
 116 -457 109 -427 107 -387 c 2
 69 142 l 2
 69 146 69 150 69 154 c 0
 69 189 80 216 94 216 c 2
 192 216 l 2
 206 216 216 186 216 151 c 0
 216 148 216 145 216 142 c 2
 179 -387 l 2
 176 -427 171 -457 156 -457 c 2
 130 -457 l 2
383 -457 m 2
 368 -457 362 -427 360 -387 c 2
 321 142 l 2
 321 145 321 148 321 151 c 0
 321 187 332 216 346 216 c 2
 445 216 l 2
 458 216 468 188 468 154 c 0
 468 150 468 146 468 142 c 2
 431 -387 l 2
 429 -427 424 -457 409 -457 c 2
 383 -457 l 2
EndSplineSet
EndChar

StartChar: notequal
Encoding: 405 8800 408
Width: 693
VWidth: 0
Flags: HW
LayerCount: 2
Fore
SplineSet
151 178.5 m 2
 146 178.5 142 190.5 142 204.5 c 0
 142 207.5 142.392578125 210.567382812 143 213.5 c 2
 218.5078125 448 l 1
 100 448 l 2
 85 448 76 451 76 494 c 2
 76 535 l 2
 76 578 85 580 100 580 c 2
 261.01171875 580 l 1
 308.344726562 727 l 1
 100 727 l 2
 85 727 76 730 76 773 c 2
 76 814 l 2
 76 857 85 860 100 860 c 2
 351.169921875 860 l 1
 427 1095.5 l 2
 433.500976562 1115.69042969 438 1130.5 445 1130.5 c 2
 542 1130.5 l 2
 548 1130.5 552 1118.5 552 1105.5 c 0
 552 1102.5 551.97265625 1098.51074219 551 1095.5 c 2
 474.903320312 860 l 1
 594 860 l 2
 609 860 618 857 618 814 c 2
 618 773 l 2
 618 730 609 727 594 727 c 2
 431.926757812 727 l 1
 384.426757812 580 l 1
 594 580 l 2
 609 580 618 578 618 535 c 2
 618 494 l 2
 618 451 609 448 594 448 c 2
 341.7734375 448 l 1
 266 213.5 l 1
 261.685546875 192.73046875 257 178.5 250 178.5 c 2
 151 178.5 l 2
EndSplineSet
EndChar

StartChar: lessequal
Encoding: 406 8804 409
Width: 582
VWidth: 0
Flags: HW
LayerCount: 2
Fore
SplineSet
106.5 0.7998046875 m 2
 90.5 0.7998046875 80.5 8.7998046875 80.5 51.7998046875 c 2
 80.5 110.799804688 l 2
 80.5 153.799804688 90.5 160.799804688 106.5 160.799804688 c 2
 483.5 160.799804688 l 2
 497.5 160.799804688 508.5 153.799804688 508.5 110.799804688 c 2
 508.5 51.7998046875 l 2
 508.5 8.7998046875 497.5 0.7998046875 483.5 0.7998046875 c 2
 106.5 0.7998046875 l 2
452 225 m 0
 445 225 436 231 426 238 c 1
 135 499 l 1
 101 537 80 560 80 606 c 2
 80 655 l 2
 80 701 102 723 136 762 c 1
 426 1032 l 2
 434 1039 443 1042 451 1042 c 0
 471 1042 485 1023 485 999 c 2
 485 923 l 2
 485 876 466 860 437 828 c 1
 243 648 l 2
 236.978515625 642.413085938 233.860351562 636.063476562 233.860351562 629.73828125 c 0
 233.860351562 623.555664062 236.83984375 617.397460938 243 612 c 2
 437 442 l 1
 466 411 485 397 485 350 c 2
 485 267 l 2
 485 244 471 225 452 225 c 0
EndSplineSet
EndChar

StartChar: greaterequal
Encoding: 407 8805 410
Width: 581
VWidth: 0
Flags: HW
LayerCount: 2
Fore
SplineSet
477 0.7998046875 m 2
 493 0.7998046875 503 8.7998046875 503 51.7998046875 c 2
 503 110.799804688 l 2
 503 153.799804688 493 160.799804688 477 160.799804688 c 2
 100 160.799804688 l 2
 86 160.799804688 75 153.799804688 75 110.799804688 c 2
 75 51.7998046875 l 2
 75 8.7998046875 86 0.7998046875 100 0.7998046875 c 2
 477 0.7998046875 l 2
131.5 225 m 0
 138.5 225 147.5 231 157.5 238 c 1
 448.5 499 l 1
 482.5 537 503.5 560 503.5 606 c 2
 503.5 655 l 2
 503.5 701 481.5 723 447.5 762 c 1
 157.5 1032 l 2
 149.5 1039 140.5 1042 132.5 1042 c 0
 112.5 1042 98.5 1023 98.5 999 c 2
 98.5 923 l 2
 98.5 876 117.5 860 146.5 828 c 1
 340.5 648 l 2
 346.521484375 642.413085938 349.639648438 636.063476562 349.639648438 629.73828125 c 0
 349.639648438 623.555664062 346.66015625 617.397460938 340.5 612 c 2
 146.5 442 l 1
 117.5 411 98.5 397 98.5 350 c 2
 98.5 267 l 2
 98.5 244 112.5 225 131.5 225 c 0
EndSplineSet
EndChar

StartChar: approxequal
Encoding: 404 8776 411
Width: 949
VWidth: 0
Flags: HW
LayerCount: 2
Fore
SplineSet
656 351 m 0
 756 351 811 394 857 472 c 0
 864 484 870 496 870 510 c 0
 870 533.547851562 832.110351562 603 808 603 c 0
 794 603 788 594 784 586 c 0
 742 507 711 494 656 494 c 0
 546 495 417 623 289 623 c 0
 206 623 141 589 86 502 c 0
 81 494 79 485 79 475 c 0
 79 440 108 382 138 382 c 0
 147 382 156 387 165 400 c 0
 205 454 228 480 275 480 c 0
 387 480 522 351 656 351 c 0
656 652 m 0
 756 652 811 695 857 773 c 0
 864 785 870 797 870 811 c 0
 870 834.547851562 832.110351562 904 808 904 c 0
 794 904 788 895 784 887 c 0
 742 808 711 795 656 795 c 0
 546 796 417 924 289 924 c 0
 206 924 141 890 86 803 c 0
 81 795 79 786 79 776 c 0
 79 741 108 683 138 683 c 0
 147 683 156 688 165 701 c 0
 205 755 228 781 275 781 c 0
 387 781 522 652 656 652 c 0
EndSplineSet
EndChar

StartChar: infinity
Encoding: 402 8734 412
Width: 1206
VWidth: 0
Flags: HW
LayerCount: 2
Fore
SplineSet
603.33984375 661.014648438 m 0
 570.614257812 661.014648438 410.389648438 532 276 532 c 0
 189 532 82 594 82 764 c 0
 82 934 189 996 276 996 c 0
 409.5546875 996 569.965820312 866.997070312 602.5 866.997070312 c 0
 634.790039062 866.997070312 795.393554688 996 929.5 996 c 0
 1016.5 996 1123.5 934 1123.5 764 c 0
 1123.5 594 1016.5 532 929.5 532 c 0
 796.405273438 532 636.610351562 661.014648438 603.33984375 661.014648438 c 0
1037.5 764 m 0
 1037.5 837 984.5 873 929.5 873 c 0
 857.5 872 767.5 808 678.5 764 c 1
 767.5 720 857.5 656 929.5 655 c 0
 984.5 655 1037.5 691 1037.5 764 c 0
168 764 m 0
 168 691 221 655 276 655 c 0
 348 656 438 720 527 764 c 1
 438 808 348 872 276 873 c 0
 221 873 168 837 168 764 c 0
EndSplineSet
EndChar

StartChar: perthousand
Encoding: 392 8240 413
Width: 1527
VWidth: 0
Flags: HW
LayerCount: 2
Fore
SplineSet
386 -73 m 2
 376 -73 368 -49 368 -23 c 0
 368 -16 368.918945312 -9.98828125 370 -3 c 2
 594 1415 l 2
 600.620117188 1456.90722656 615 1485 631 1485 c 2
 672 1485 l 2
 681 1485 688 1463 688 1438 c 0
 688 1430 687.252929688 1422.96484375 686 1415 c 2
 463 -3 l 2
 456.541992188 -44.931640625 443 -73 427 -73 c 2
 386 -73 l 2
225 785 m 0
 283 785 307 867 307 1051 c 0
 307 1239 283 1323 225 1323 c 0
 166 1323 142 1239 142 1051 c 0
 142 867 166 785 225 785 c 0
225 670 m 0
 110 670 45 778 45 1055 c 0
 45 1330 108 1438 225 1438 c 0
 340 1438 403 1330 403 1055 c 0
 403 778 338 670 225 670 c 0
848 115 m 0
 906 115 930 197 930 381 c 0
 930 569 906 653 848 653 c 0
 789 653 765 569 765 381 c 0
 765 197 790 115 848 115 c 0
848 0 m 0
 733 0 668 108 668 385 c 0
 668 660 731 768 848 768 c 0
 964 768 1027 660 1027 385 c 0
 1027 108 962 0 848 0 c 0
1304 115 m 0
 1362 115 1386 197 1386 381 c 0
 1386 569 1362 653 1304 653 c 0
 1245 653 1221 569 1221 381 c 0
 1221 197 1246 115 1304 115 c 0
1304 0 m 0
 1189 0 1124 108 1124 385 c 0
 1124 660 1187 768 1304 768 c 0
 1420 768 1483 660 1483 385 c 0
 1483 108 1418 0 1304 0 c 0
EndSplineSet
EndChar

StartChar: one.superior
Encoding: 420 185 414
Width: 403
VWidth: 144
Flags: HW
LayerCount: 2
Fore
SplineSet
178 288 m 2
 166 288 158 308 158 342 c 2
 158 1226 l 2
 158 1242 154 1251 148 1250 c 2
 148 1250 85 1234 84 1234 c 0
 73 1233 66 1241 66 1269 c 2
 66 1346 l 2
 66 1372 74 1380 85 1382 c 2
 297 1436 l 2
 300 1437 302 1437 304 1437 c 0
 315 1437 321 1428 321 1399 c 2
 321 342 l 2
 321 308 313 288 301 288 c 2
 178 288 l 2
EndSplineSet
EndChar

StartChar: three.superior
Encoding: 421 179 415
Width: 544
VWidth: 144
Flags: HW
LayerCount: 2
Fore
SplineSet
225 276 m 0
 146 276 93 291 63 316 c 0
 55 322 52 357 52 361 c 0
 52 366 55 423 57 423 c 1
 58 440 60 451 69 443 c 1
 87 433 127 405 205 405 c 0
 308 405 354 477 354 606 c 1
 353 728 307 804 214 806 c 0
 211 806 189 806 185 806 c 0
 166 806 163 813 163 835 c 2
 163 921 l 2
 163 931 166 940 185 940 c 0
 188 940 211 940 213 940 c 0
 307 942 346 1016 346 1130 c 0
 346 1273 300 1322 218 1322 c 0
 137 1322 89 1297 67 1284 c 1
 60 1278 57 1284 56 1305 c 1
 54 1305 49 1360 49 1364 c 0
 49 1368 53 1404 61 1410 c 0
 99 1434 149 1451 239 1451 c 0
 378 1451 486 1371 486 1137 c 0
 486 995 436 899 329 872 c 1
 439 847 492 740 492 578 c 0
 492 344 361 276 225 276 c 0
EndSplineSet
EndChar

StartChar: two.superior
Encoding: 422 178 416
Width: 591
VWidth: 144
Flags: HW
LayerCount: 2
Fore
SplineSet
487 290 m 2
 87 290 l 2
 73 290 66 307 66 345 c 0
 66 350 67 387 67 393 c 0
 93 811 397 965 397 1175 c 0
 397 1277 336 1321 269 1321 c 0
 182 1321 128 1285 94 1271 c 1
 83 1261 78 1266 77 1281 c 1
 69 1315 63 1349 63 1356 c 0
 63 1377 65 1388 70 1395 c 1
 120 1429 198 1452 272 1452 c 0
 395 1452 533 1408 533 1201 c 0
 533 943 285 836 211 454 c 0
 210 452 210 449 210 445 c 0
 210 430 214 406 221 406 c 2
 487 406 l 2
 496 406 502 397 502 366 c 2
 502 327 l 2
 502 297 497 290 487 290 c 2
EndSplineSet
EndChar

StartChar: uni2215
Encoding: 424 8725 417
Width: 564
VWidth: 0
Flags: HW
LayerCount: 2
Fore
SplineSet
86 -205 m 2
 82 -205 78 -193 78 -180 c 0
 78 -177 79 -175 79 -172 c 2
 381 1614 l 2
 384 1634 392 1647 399 1647 c 2
 488 1647 l 2
 493 1647 496 1637 496 1625 c 0
 496 1621 496 1618 495 1614 c 2
 194 -173 l 2
 191 -193 183 -206 176 -206 c 2
 86 -205 l 2
EndSplineSet
EndChar

